  0
SECTION
  2
HEADER
  9
$ACADVER
  1
AC1009
  9
$FILLMODE
 70
1
  9
$EXTMIN
 10
0.0250
 20
0.0050
 30
0.0000
  9
$EXTMAX
 10
74.1750
 20
85.1550
 30
0.0000
  0
ENDSEC
  0
SECTION
  2
TABLES
  0
TABLE
  2
LTYPE
 70
1
  0
LTYPE
  2
CONTINUOUS
 70
64
  3
Solid line
 72
65
 73
0
 40
0
  0
ENDTAB
  0
TABLE
  2
LAYER
 70
255
  0
LAYER
  2
1
 70
64
 62
12
  6
CONTINUOUS
  0
LAYER
  2
16
 70
64
 62
132
  6
CONTINUOUS
  0
LAYER
  2
17
 70
64
 62
110
  6
CONTINUOUS
  0
LAYER
  2
18
 70
64
 62
110
  6
CONTINUOUS
  0
LAYER
  2
19
 70
64
 62
53
  6
CONTINUOUS
  0
LAYER
  2
20
 70
64
 62
31
  6
CONTINUOUS
  0
LAYER
  2
21
 70
64
 62
253
  6
CONTINUOUS
  0
LAYER
  2
22
 70
64
 62
253
  6
CONTINUOUS
  0
LAYER
  2
23
 70
64
 62
53
  6
CONTINUOUS
  0
LAYER
  2
24
 70
64
 62
53
  6
CONTINUOUS
  0
LAYER
  2
25
 70
64
 62
253
  6
CONTINUOUS
  0
LAYER
  2
26
 70
64
 62
253
  6
CONTINUOUS
  0
LAYER
  2
27
 70
64
 62
253
  6
CONTINUOUS
  0
LAYER
  2
28
 70
64
 62
253
  6
CONTINUOUS
  0
LAYER
  2
39
 70
64
 62
12
  6
CONTINUOUS
  0
LAYER
  2
40
 70
64
 62
132
  6
CONTINUOUS
  0
LAYER
  2
41
 70
64
 62
12
  6
CONTINUOUS
  0
LAYER
  2
42
 70
64
 62
132
  6
CONTINUOUS
  0
LAYER
  2
43
 70
64
 62
110
  6
CONTINUOUS
  0
LAYER
  2
48
 70
64
 62
253
  6
CONTINUOUS
  0
LAYER
  2
49
 70
64
 62
253
  6
CONTINUOUS
  0
LAYER
  2
50
 70
64
 62
1
  6
CONTINUOUS
  0
LAYER
  2
51
 70
64
 62
253
  6
CONTINUOUS
  0
LAYER
  2
52
 70
64
 62
253
  6
CONTINUOUS
  0
LAYER
  2
108
 70
64
 62
253
  6
CONTINUOUS
  0
LAYER
  2
109
 70
64
 62
253
  6
CONTINUOUS
  0
LAYER
  2
110
 70
64
 62
253
  6
CONTINUOUS
  0
LAYER
  2
111
 70
64
 62
253
  6
CONTINUOUS
  0
LAYER
  2
118
 70
64
 62
12
  6
CONTINUOUS
  0
LAYER
  2
120
 70
64
 62
253
  6
CONTINUOUS
  0
LAYER
  2
123
 70
64
 62
253
  6
CONTINUOUS
  0
LAYER
  2
124
 70
64
 62
253
  6
CONTINUOUS
  0
LAYER
  2
125
 70
64
 62
253
  6
CONTINUOUS
  0
LAYER
  2
126
 70
64
 62
253
  6
CONTINUOUS
  0
LAYER
  2
127
 70
64
 62
253
  6
CONTINUOUS
  0
LAYER
  2
128
 70
64
 62
253
  6
CONTINUOUS
  0
LAYER
  2
129
 70
64
 62
253
  6
CONTINUOUS
  0
LAYER
  2
130
 70
64
 62
253
  6
CONTINUOUS
  0
LAYER
  2
131
 70
64
 62
253
  6
CONTINUOUS
  0
LAYER
  2
132
 70
64
 62
253
  6
CONTINUOUS
  0
LAYER
  2
150
 70
64
 62
253
  6
CONTINUOUS
  0
LAYER
  2
152
 70
64
 62
253
  6
CONTINUOUS
  0
LAYER
  2
156
 70
64
 62
190
  6
CONTINUOUS
  0
LAYER
  2
157
 70
64
 62
155
  6
CONTINUOUS
  0
LAYER
  2
158
 70
64
 62
253
  6
CONTINUOUS
  0
LAYER
  2
159
 70
64
 62
53
  6
CONTINUOUS
  0
LAYER
  2
199
 70
64
 62
253
  6
CONTINUOUS
  0
LAYER
  2
225
 70
64
 62
253
  6
CONTINUOUS
  0
LAYER
  2
226
 70
64
 62
253
  6
CONTINUOUS
  0
LAYER
  2
227
 70
64
 62
253
  6
CONTINUOUS
  0
LAYER
  2
228
 70
64
 62
253
  6
CONTINUOUS
  0
LAYER
  2
229
 70
64
 62
253
  6
CONTINUOUS
  0
LAYER
  2
230
 70
64
 62
253
  6
CONTINUOUS
  0
LAYER
  2
248
 70
64
 62
253
  6
CONTINUOUS
  0
LAYER
  2
249
 70
64
 62
253
  6
CONTINUOUS
  0
LAYER
  2
255
 70
64
 62
253
  6
CONTINUOUS
  0
ENDTAB
  0
ENDSEC
  0
SECTION
  2
BLOCKS
  0
BLOCK
  8
0
  2
RECT
 70
64
 10
0.0000
 20
0.0000
 30
0.0000
  3
RECT
  0
SOLID
  8
0
 10
-0.5000
 20
-0.5000
 30
0.0000
 11
0.5000
 21
-0.5000
 31
0.0000
 12
-0.5000
 22
0.5000
 32
0.0000
 13
0.5000
 23
0.5000
 33
0.0000
  0
ENDBLK
  8
0
  0
BLOCK
  8
0
  2
PIE
 70
64
 10
0.0000
 20
0.0000
 30
0.0000
  3
PIE
  0
POLYLINE
  8
0
 66
1
 10
0.0000
 20
0.0000
 30
0.0000
 40
0.5000
 41
0.5000
 70
0
  0
VERTEX
  8
0
 10
0.0000
 20
-0.2500
 30
0.0000
 42
1.0000
  0
VERTEX
  8
0
 10
0.0000
 20
0.2500
 30
0.0000
 42
1.0000
  0
VERTEX
  8
0
 10
0.0000
 20
-0.2500
 30
0.0000
  0
SEQEND
  8
0
  0
ENDBLK
  8
0
  0
BLOCK
  8
0
  2
OCTAGONP
 70
64
 10
0.0000
 20
0.0000
 30
0.0000
  3
OCTAGONP
  0
POLYLINE
  8
0
 66
1
 10
0.0000
 20
0.0000
 30
0.0000
 40
0.5000
 41
0.5000
 70
0
  0
VERTEX
  8
0
 10
-0.2500
 20
-0.1036
 30
0.0000
  0
VERTEX
  8
0
 10
-0.2500
 20
0.1036
 30
0.0000
  0
VERTEX
  8
0
 10
-0.1036
 20
0.2500
 30
0.0000
  0
VERTEX
  8
0
 10
0.1036
 20
0.2500
 30
0.0000
  0
VERTEX
  8
0
 10
0.2500
 20
0.1036
 30
0.0000
  0
VERTEX
  8
0
 10
0.2500
 20
-0.1036
 30
0.0000
  0
VERTEX
  8
0
 10
0.1036
 20
-0.2500
 30
0.0000
  0
VERTEX
  8
0
 10
-0.1036
 20
-0.2500
 30
0.0000
  0
VERTEX
  8
0
 10
-0.2500
 20
-0.1036
 30
0.0000
  0
VERTEX
  8
0
 10
-0.2500
 20
0.1036
 30
0.0000
  0
SEQEND
  8
0
  0
ENDBLK
  8
0
  0
BLOCK
  8
0
  2
SQUAREP
 70
64
 10
0.0000
 20
0.0000
 30
0.0000
  3
SQUAREP
  0
SOLID
  8
0
 10
-0.5000
 20
-0.5000
 30
0.0000
 11
0.5000
 21
-0.5000
 31
0.0000
 12
-0.5000
 22
0.5000
 32
0.0000
 13
0.5000
 23
0.5000
 33
0.0000
  0
ENDBLK
  8
0
  0
BLOCK
  8
0
  2
ROUNDP
 70
64
 10
0.0000
 20
0.0000
 30
0.0000
  3
ROUNDP
  0
POLYLINE
  8
0
 66
1
 10
0.0000
 20
0.0000
 30
0.0000
 40
0.5000
 41
0.5000
 70
0
  0
VERTEX
  8
0
 10
0.0000
 20
-0.2500
 30
0.0000
 42
1.0000
  0
VERTEX
  8
0
 10
0.0000
 20
0.2500
 30
0.0000
 42
1.0000
  0
VERTEX
  8
0
 10
0.0000
 20
-0.2500
 30
0.0000
  0
SEQEND
  8
0
  0
ENDBLK
  8
0
  0
BLOCK
  8
0
  2
ANNULUSP
 70
64
 10
0.0000
 20
0.0000
 30
0.0000
  3
ANNULUSP
  0
POLYLINE
  8
0
 66
1
 10
0.0000
 20
0.0000
 30
0.0000
 40
0.5000
 41
0.5000
 70
0
  0
VERTEX
  8
0
 10
0.0000
 20
-0.2500
 30
0.0000
 42
1.0000
  0
VERTEX
  8
0
 10
0.0000
 20
0.2500
 30
0.0000
 42
1.0000
  0
VERTEX
  8
0
 10
0.0000
 20
-0.2500
 30
0.0000
  0
SEQEND
  8
0
  0
ENDBLK
  8
0
  0
BLOCK
  8
0
  2
THERMALP
 70
64
 10
0.0000
 20
0.0000
 30
0.0000
  3
THERMALP
  0
POLYLINE
  8
0
 66
1
 10
0.0000
 20
0.0000
 30
0.0000
 40
0.1000
 41
0.1000
 70
0
  0
VERTEX
  8
0
 10
-0.2379
 20
0.4500
 30
0.0000
  0
VERTEX
  8
0
 10
0.2379
 20
0.4500
 30
0.0000
  0
SEQEND
  8
0
  0
POLYLINE
  8
0
 66
1
 10
0.0000
 20
0.0000
 30
0.0000
 40
0.0500
 41
0.0500
 70
0
  0
VERTEX
  8
0
 10
0.2379
 20
0.4250
 30
0.0000
 42
1.0000
  0
VERTEX
  8
0
 10
0.2379
 20
0.4750
 30
0.0000
  0
SEQEND
  8
0
  0
POLYLINE
  8
0
 66
1
 10
0.0000
 20
0.0000
 30
0.0000
 40
0.0500
 41
0.0500
 70
0
  0
VERTEX
  8
0
 10
-0.2379
 20
0.4750
 30
0.0000
 42
1.0000
  0
VERTEX
  8
0
 10
-0.2379
 20
0.4250
 30
0.0000
  0
SEQEND
  8
0
  0
POLYLINE
  8
0
 66
1
 10
0.0000
 20
0.0000
 30
0.0000
 40
0.1000
 41
0.1000
 70
0
  0
VERTEX
  8
0
 10
0.4500
 20
0.2379
 30
0.0000
  0
VERTEX
  8
0
 10
0.4500
 20
-0.2379
 30
0.0000
  0
SEQEND
  8
0
  0
POLYLINE
  8
0
 66
1
 10
0.0000
 20
0.0000
 30
0.0000
 40
0.0500
 41
0.0500
 70
0
  0
VERTEX
  8
0
 10
0.4250
 20
-0.2379
 30
0.0000
 42
1.0000
  0
VERTEX
  8
0
 10
0.4750
 20
-0.2379
 30
0.0000
  0
SEQEND
  8
0
  0
POLYLINE
  8
0
 66
1
 10
0.0000
 20
0.0000
 30
0.0000
 40
0.0500
 41
0.0500
 70
0
  0
VERTEX
  8
0
 10
0.4750
 20
0.2379
 30
0.0000
 42
1.0000
  0
VERTEX
  8
0
 10
0.4250
 20
0.2379
 30
0.0000
  0
SEQEND
  8
0
  0
POLYLINE
  8
0
 66
1
 10
0.0000
 20
0.0000
 30
0.0000
 40
0.1000
 41
0.1000
 70
0
  0
VERTEX
  8
0
 10
0.2379
 20
-0.4500
 30
0.0000
  0
VERTEX
  8
0
 10
-0.2379
 20
-0.4500
 30
0.0000
  0
SEQEND
  8
0
  0
POLYLINE
  8
0
 66
1
 10
0.0000
 20
0.0000
 30
0.0000
 40
0.0500
 41
0.0500
 70
0
  0
VERTEX
  8
0
 10
-0.2379
 20
-0.4250
 30
0.0000
 42
1.0000
  0
VERTEX
  8
0
 10
-0.2379
 20
-0.4750
 30
0.0000
  0
SEQEND
  8
0
  0
POLYLINE
  8
0
 66
1
 10
0.0000
 20
0.0000
 30
0.0000
 40
0.0500
 41
0.0500
 70
0
  0
VERTEX
  8
0
 10
0.2379
 20
-0.4750
 30
0.0000
 42
1.0000
  0
VERTEX
  8
0
 10
0.2379
 20
-0.4250
 30
0.0000
  0
SEQEND
  8
0
  0
POLYLINE
  8
0
 66
1
 10
0.0000
 20
0.0000
 30
0.0000
 40
0.1000
 41
0.1000
 70
0
  0
VERTEX
  8
0
 10
-0.4500
 20
-0.2379
 30
0.0000
  0
VERTEX
  8
0
 10
-0.4500
 20
0.2379
 30
0.0000
  0
SEQEND
  8
0
  0
POLYLINE
  8
0
 66
1
 10
0.0000
 20
0.0000
 30
0.0000
 40
0.0500
 41
0.0500
 70
0
  0
VERTEX
  8
0
 10
-0.4250
 20
0.2379
 30
0.0000
 42
1.0000
  0
VERTEX
  8
0
 10
-0.4750
 20
0.2379
 30
0.0000
  0
SEQEND
  8
0
  0
POLYLINE
  8
0
 66
1
 10
0.0000
 20
0.0000
 30
0.0000
 40
0.0500
 41
0.0500
 70
0
  0
VERTEX
  8
0
 10
-0.4750
 20
-0.2379
 30
0.0000
 42
1.0000
  0
VERTEX
  8
0
 10
-0.4250
 20
-0.2379
 30
0.0000
  0
SEQEND
  8
0
  0
ENDBLK
  8
0
  0
BLOCK
  8
0
  2
OCTAGONV
 70
64
 10
0.0000
 20
0.0000
 30
0.0000
  3
OCTAGONV
  0
POLYLINE
  8
0
 66
1
 10
0.0000
 20
0.0000
 30
0.0000
 40
0.5000
 41
0.5000
 70
0
  0
VERTEX
  8
0
 10
-0.2500
 20
-0.1036
 30
0.0000
  0
VERTEX
  8
0
 10
-0.2500
 20
0.1036
 30
0.0000
  0
VERTEX
  8
0
 10
-0.1036
 20
0.2500
 30
0.0000
  0
VERTEX
  8
0
 10
0.1036
 20
0.2500
 30
0.0000
  0
VERTEX
  8
0
 10
0.2500
 20
0.1036
 30
0.0000
  0
VERTEX
  8
0
 10
0.2500
 20
-0.1036
 30
0.0000
  0
VERTEX
  8
0
 10
0.1036
 20
-0.2500
 30
0.0000
  0
VERTEX
  8
0
 10
-0.1036
 20
-0.2500
 30
0.0000
  0
VERTEX
  8
0
 10
-0.2500
 20
-0.1036
 30
0.0000
  0
VERTEX
  8
0
 10
-0.2500
 20
0.1036
 30
0.0000
  0
SEQEND
  8
0
  0
ENDBLK
  8
0
  0
BLOCK
  8
0
  2
SQUAREV
 70
64
 10
0.0000
 20
0.0000
 30
0.0000
  3
SQUAREV
  0
SOLID
  8
0
 10
-0.5000
 20
-0.5000
 30
0.0000
 11
0.5000
 21
-0.5000
 31
0.0000
 12
-0.5000
 22
0.5000
 32
0.0000
 13
0.5000
 23
0.5000
 33
0.0000
  0
ENDBLK
  8
0
  0
BLOCK
  8
0
  2
ROUNDV
 70
64
 10
0.0000
 20
0.0000
 30
0.0000
  3
ROUNDV
  0
POLYLINE
  8
0
 66
1
 10
0.0000
 20
0.0000
 30
0.0000
 40
0.5000
 41
0.5000
 70
0
  0
VERTEX
  8
0
 10
0.0000
 20
-0.2500
 30
0.0000
 42
1.0000
  0
VERTEX
  8
0
 10
0.0000
 20
0.2500
 30
0.0000
 42
1.0000
  0
VERTEX
  8
0
 10
0.0000
 20
-0.2500
 30
0.0000
  0
SEQEND
  8
0
  0
ENDBLK
  8
0
  0
BLOCK
  8
0
  2
ANNULUSV
 70
64
 10
0.0000
 20
0.0000
 30
0.0000
  3
ANNULUSV
  0
POLYLINE
  8
0
 66
1
 10
0.0000
 20
0.0000
 30
0.0000
 40
0.5000
 41
0.5000
 70
0
  0
VERTEX
  8
0
 10
0.0000
 20
-0.2500
 30
0.0000
 42
1.0000
  0
VERTEX
  8
0
 10
0.0000
 20
0.2500
 30
0.0000
 42
1.0000
  0
VERTEX
  8
0
 10
0.0000
 20
-0.2500
 30
0.0000
  0
SEQEND
  8
0
  0
ENDBLK
  8
0
  0
BLOCK
  8
0
  2
THERMALV
 70
64
 10
0.0000
 20
0.0000
 30
0.0000
  3
THERMALV
  0
POLYLINE
  8
0
 66
1
 10
0.0000
 20
0.0000
 30
0.0000
 40
0.1000
 41
0.1000
 70
0
  0
VERTEX
  8
0
 10
-0.2379
 20
0.4500
 30
0.0000
  0
VERTEX
  8
0
 10
0.2379
 20
0.4500
 30
0.0000
  0
SEQEND
  8
0
  0
POLYLINE
  8
0
 66
1
 10
0.0000
 20
0.0000
 30
0.0000
 40
0.0500
 41
0.0500
 70
0
  0
VERTEX
  8
0
 10
0.2379
 20
0.4250
 30
0.0000
 42
1.0000
  0
VERTEX
  8
0
 10
0.2379
 20
0.4750
 30
0.0000
  0
SEQEND
  8
0
  0
POLYLINE
  8
0
 66
1
 10
0.0000
 20
0.0000
 30
0.0000
 40
0.0500
 41
0.0500
 70
0
  0
VERTEX
  8
0
 10
-0.2379
 20
0.4750
 30
0.0000
 42
1.0000
  0
VERTEX
  8
0
 10
-0.2379
 20
0.4250
 30
0.0000
  0
SEQEND
  8
0
  0
POLYLINE
  8
0
 66
1
 10
0.0000
 20
0.0000
 30
0.0000
 40
0.1000
 41
0.1000
 70
0
  0
VERTEX
  8
0
 10
0.4500
 20
0.2379
 30
0.0000
  0
VERTEX
  8
0
 10
0.4500
 20
-0.2379
 30
0.0000
  0
SEQEND
  8
0
  0
POLYLINE
  8
0
 66
1
 10
0.0000
 20
0.0000
 30
0.0000
 40
0.0500
 41
0.0500
 70
0
  0
VERTEX
  8
0
 10
0.4250
 20
-0.2379
 30
0.0000
 42
1.0000
  0
VERTEX
  8
0
 10
0.4750
 20
-0.2379
 30
0.0000
  0
SEQEND
  8
0
  0
POLYLINE
  8
0
 66
1
 10
0.0000
 20
0.0000
 30
0.0000
 40
0.0500
 41
0.0500
 70
0
  0
VERTEX
  8
0
 10
0.4750
 20
0.2379
 30
0.0000
 42
1.0000
  0
VERTEX
  8
0
 10
0.4250
 20
0.2379
 30
0.0000
  0
SEQEND
  8
0
  0
POLYLINE
  8
0
 66
1
 10
0.0000
 20
0.0000
 30
0.0000
 40
0.1000
 41
0.1000
 70
0
  0
VERTEX
  8
0
 10
0.2379
 20
-0.4500
 30
0.0000
  0
VERTEX
  8
0
 10
-0.2379
 20
-0.4500
 30
0.0000
  0
SEQEND
  8
0
  0
POLYLINE
  8
0
 66
1
 10
0.0000
 20
0.0000
 30
0.0000
 40
0.0500
 41
0.0500
 70
0
  0
VERTEX
  8
0
 10
-0.2379
 20
-0.4250
 30
0.0000
 42
1.0000
  0
VERTEX
  8
0
 10
-0.2379
 20
-0.4750
 30
0.0000
  0
SEQEND
  8
0
  0
POLYLINE
  8
0
 66
1
 10
0.0000
 20
0.0000
 30
0.0000
 40
0.0500
 41
0.0500
 70
0
  0
VERTEX
  8
0
 10
0.2379
 20
-0.4750
 30
0.0000
 42
1.0000
  0
VERTEX
  8
0
 10
0.2379
 20
-0.4250
 30
0.0000
  0
SEQEND
  8
0
  0
POLYLINE
  8
0
 66
1
 10
0.0000
 20
0.0000
 30
0.0000
 40
0.1000
 41
0.1000
 70
0
  0
VERTEX
  8
0
 10
-0.4500
 20
-0.2379
 30
0.0000
  0
VERTEX
  8
0
 10
-0.4500
 20
0.2379
 30
0.0000
  0
SEQEND
  8
0
  0
POLYLINE
  8
0
 66
1
 10
0.0000
 20
0.0000
 30
0.0000
 40
0.0500
 41
0.0500
 70
0
  0
VERTEX
  8
0
 10
-0.4250
 20
0.2379
 30
0.0000
 42
1.0000
  0
VERTEX
  8
0
 10
-0.4750
 20
0.2379
 30
0.0000
  0
SEQEND
  8
0
  0
POLYLINE
  8
0
 66
1
 10
0.0000
 20
0.0000
 30
0.0000
 40
0.0500
 41
0.0500
 70
0
  0
VERTEX
  8
0
 10
-0.4750
 20
-0.2379
 30
0.0000
 42
1.0000
  0
VERTEX
  8
0
 10
-0.4250
 20
-0.2379
 30
0.0000
  0
SEQEND
  8
0
  0
ENDBLK
  8
0
  0
ENDSEC
  0
SECTION
  2
ENTITIES
  0
POLYLINE
  8
20
 66
1
 10
0.0000
 20
0.0000
 30
0.0000
 40
0.1500
 41
0.1500
 70
0
  0
VERTEX
  8
20
 10
74.1000
 20
85.0800
 30
0.0000
  0
VERTEX
  8
20
 10
0.1000
 20
85.0800
 30
0.0000
  0
SEQEND
  8
0
  0
POLYLINE
  8
20
 66
1
 10
0.0000
 20
0.0000
 30
0.0000
 40
0.0750
 41
0.0750
 70
0
  0
VERTEX
  8
20
 10
0.1000
 20
85.1175
 30
0.0000
 42
1.0000
  0
VERTEX
  8
20
 10
0.1000
 20
85.0425
 30
0.0000
  0
SEQEND
  8
0
  0
POLYLINE
  8
20
 66
1
 10
0.0000
 20
0.0000
 30
0.0000
 40
0.0750
 41
0.0750
 70
0
  0
VERTEX
  8
20
 10
74.1000
 20
85.0425
 30
0.0000
 42
1.0000
  0
VERTEX
  8
20
 10
74.1000
 20
85.1175
 30
0.0000
  0
SEQEND
  8
0
  0
POLYLINE
  8
20
 66
1
 10
0.0000
 20
0.0000
 30
0.0000
 40
0.1500
 41
0.1500
 70
0
  0
VERTEX
  8
20
 10
74.1000
 20
85.0800
 30
0.0000
  0
VERTEX
  8
20
 10
74.1000
 20
0.0800
 30
0.0000
  0
SEQEND
  8
0
  0
POLYLINE
  8
20
 66
1
 10
0.0000
 20
0.0000
 30
0.0000
 40
0.0750
 41
0.0750
 70
0
  0
VERTEX
  8
20
 10
74.0625
 20
0.0800
 30
0.0000
 42
1.0000
  0
VERTEX
  8
20
 10
74.1375
 20
0.0800
 30
0.0000
  0
SEQEND
  8
0
  0
POLYLINE
  8
20
 66
1
 10
0.0000
 20
0.0000
 30
0.0000
 40
0.0750
 41
0.0750
 70
0
  0
VERTEX
  8
20
 10
74.1375
 20
85.0800
 30
0.0000
 42
1.0000
  0
VERTEX
  8
20
 10
74.0625
 20
85.0800
 30
0.0000
  0
SEQEND
  8
0
  0
POLYLINE
  8
20
 66
1
 10
0.0000
 20
0.0000
 30
0.0000
 40
0.1500
 41
0.1500
 70
0
  0
VERTEX
  8
20
 10
74.1000
 20
0.0800
 30
0.0000
  0
VERTEX
  8
20
 10
0.1000
 20
0.0800
 30
0.0000
  0
SEQEND
  8
0
  0
POLYLINE
  8
20
 66
1
 10
0.0000
 20
0.0000
 30
0.0000
 40
0.0750
 41
0.0750
 70
0
  0
VERTEX
  8
20
 10
0.1000
 20
0.1175
 30
0.0000
 42
1.0000
  0
VERTEX
  8
20
 10
0.1000
 20
0.0425
 30
0.0000
  0
SEQEND
  8
0
  0
POLYLINE
  8
20
 66
1
 10
0.0000
 20
0.0000
 30
0.0000
 40
0.0750
 41
0.0750
 70
0
  0
VERTEX
  8
20
 10
74.1000
 20
0.0425
 30
0.0000
 42
1.0000
  0
VERTEX
  8
20
 10
74.1000
 20
0.1175
 30
0.0000
  0
SEQEND
  8
0
  0
POLYLINE
  8
20
 66
1
 10
0.0000
 20
0.0000
 30
0.0000
 40
0.1500
 41
0.1500
 70
0
  0
VERTEX
  8
20
 10
0.1000
 20
85.0800
 30
0.0000
  0
VERTEX
  8
20
 10
0.1000
 20
0.0800
 30
0.0000
  0
SEQEND
  8
0
  0
POLYLINE
  8
20
 66
1
 10
0.0000
 20
0.0000
 30
0.0000
 40
0.0750
 41
0.0750
 70
0
  0
VERTEX
  8
20
 10
0.0625
 20
0.0800
 30
0.0000
 42
1.0000
  0
VERTEX
  8
20
 10
0.1375
 20
0.0800
 30
0.0000
  0
SEQEND
  8
0
  0
POLYLINE
  8
20
 66
1
 10
0.0000
 20
0.0000
 30
0.0000
 40
0.0750
 41
0.0750
 70
0
  0
VERTEX
  8
20
 10
0.1375
 20
85.0800
 30
0.0000
 42
1.0000
  0
VERTEX
  8
20
 10
0.0625
 20
85.0800
 30
0.0000
  0
SEQEND
  8
0
  0
POLYLINE
  8
20
 66
1
 10
0.0000
 20
0.0000
 30
0.0000
 40
0.1524
 41
0.1524
 70
0
  0
VERTEX
  8
20
 10
27.2000
 20
56.0000
 30
0.0000
  0
VERTEX
  8
20
 10
27.2000
 20
42.7000
 30
0.0000
  0
SEQEND
  8
0
  0
POLYLINE
  8
20
 66
1
 10
0.0000
 20
0.0000
 30
0.0000
 40
0.0762
 41
0.0762
 70
0
  0
VERTEX
  8
20
 10
27.1619
 20
42.7000
 30
0.0000
 42
1.0000
  0
VERTEX
  8
20
 10
27.2381
 20
42.7000
 30
0.0000
  0
SEQEND
  8
0
  0
POLYLINE
  8
20
 66
1
 10
0.0000
 20
0.0000
 30
0.0000
 40
0.0762
 41
0.0762
 70
0
  0
VERTEX
  8
20
 10
27.2381
 20
56.0000
 30
0.0000
 42
1.0000
  0
VERTEX
  8
20
 10
27.1619
 20
56.0000
 30
0.0000
  0
SEQEND
  8
0
  0
POLYLINE
  8
20
 66
1
 10
0.0000
 20
0.0000
 30
0.0000
 40
0.1524
 41
0.1524
 70
0
  0
VERTEX
  8
20
 10
27.2000
 20
42.7000
 30
0.0000
  0
VERTEX
  8
20
 10
27.2000
 20
39.2000
 30
0.0000
  0
SEQEND
  8
0
  0
POLYLINE
  8
20
 66
1
 10
0.0000
 20
0.0000
 30
0.0000
 40
0.0762
 41
0.0762
 70
0
  0
VERTEX
  8
20
 10
27.1619
 20
39.2000
 30
0.0000
 42
1.0000
  0
VERTEX
  8
20
 10
27.2381
 20
39.2000
 30
0.0000
  0
SEQEND
  8
0
  0
POLYLINE
  8
20
 66
1
 10
0.0000
 20
0.0000
 30
0.0000
 40
0.0762
 41
0.0762
 70
0
  0
VERTEX
  8
20
 10
27.2381
 20
42.7000
 30
0.0000
 42
1.0000
  0
VERTEX
  8
20
 10
27.1619
 20
42.7000
 30
0.0000
  0
SEQEND
  8
0
  0
POLYLINE
  8
20
 66
1
 10
0.0000
 20
0.0000
 30
0.0000
 40
0.1524
 41
0.1524
 70
0
  0
VERTEX
  8
20
 10
27.2000
 20
39.2000
 30
0.0000
  0
VERTEX
  8
20
 10
54.0000
 20
39.2000
 30
0.0000
  0
SEQEND
  8
0
  0
POLYLINE
  8
20
 66
1
 10
0.0000
 20
0.0000
 30
0.0000
 40
0.0762
 41
0.0762
 70
0
  0
VERTEX
  8
20
 10
54.0000
 20
39.1619
 30
0.0000
 42
1.0000
  0
VERTEX
  8
20
 10
54.0000
 20
39.2381
 30
0.0000
  0
SEQEND
  8
0
  0
POLYLINE
  8
20
 66
1
 10
0.0000
 20
0.0000
 30
0.0000
 40
0.0762
 41
0.0762
 70
0
  0
VERTEX
  8
20
 10
27.2000
 20
39.2381
 30
0.0000
 42
1.0000
  0
VERTEX
  8
20
 10
27.2000
 20
39.1619
 30
0.0000
  0
SEQEND
  8
0
  0
POLYLINE
  8
20
 66
1
 10
0.0000
 20
0.0000
 30
0.0000
 40
0.1524
 41
0.1524
 70
0
  0
VERTEX
  8
20
 10
54.0000
 20
39.2000
 30
0.0000
  0
VERTEX
  8
20
 10
54.0000
 20
45.5000
 30
0.0000
  0
SEQEND
  8
0
  0
POLYLINE
  8
20
 66
1
 10
0.0000
 20
0.0000
 30
0.0000
 40
0.0762
 41
0.0762
 70
0
  0
VERTEX
  8
20
 10
54.0381
 20
45.5000
 30
0.0000
 42
1.0000
  0
VERTEX
  8
20
 10
53.9619
 20
45.5000
 30
0.0000
  0
SEQEND
  8
0
  0
POLYLINE
  8
20
 66
1
 10
0.0000
 20
0.0000
 30
0.0000
 40
0.0762
 41
0.0762
 70
0
  0
VERTEX
  8
20
 10
53.9619
 20
39.2000
 30
0.0000
 42
1.0000
  0
VERTEX
  8
20
 10
54.0381
 20
39.2000
 30
0.0000
  0
SEQEND
  8
0
  0
POLYLINE
  8
20
 66
1
 10
0.0000
 20
0.0000
 30
0.0000
 40
0.1524
 41
0.1524
 70
0
  0
VERTEX
  8
20
 10
54.0000
 20
45.5000
 30
0.0000
  0
VERTEX
  8
20
 10
54.0000
 20
56.0000
 30
0.0000
  0
SEQEND
  8
0
  0
POLYLINE
  8
20
 66
1
 10
0.0000
 20
0.0000
 30
0.0000
 40
0.0762
 41
0.0762
 70
0
  0
VERTEX
  8
20
 10
54.0381
 20
56.0000
 30
0.0000
 42
1.0000
  0
VERTEX
  8
20
 10
53.9619
 20
56.0000
 30
0.0000
  0
SEQEND
  8
0
  0
POLYLINE
  8
20
 66
1
 10
0.0000
 20
0.0000
 30
0.0000
 40
0.0762
 41
0.0762
 70
0
  0
VERTEX
  8
20
 10
53.9619
 20
45.5000
 30
0.0000
 42
1.0000
  0
VERTEX
  8
20
 10
54.0381
 20
45.5000
 30
0.0000
  0
SEQEND
  8
0
  0
POLYLINE
  8
20
 66
1
 10
0.0000
 20
0.0000
 30
0.0000
 40
0.1524
 41
0.1524
 70
0
  0
VERTEX
  8
20
 10
54.0000
 20
56.0000
 30
0.0000
  0
VERTEX
  8
20
 10
27.3000
 20
56.0000
 30
0.0000
  0
SEQEND
  8
0
  0
POLYLINE
  8
20
 66
1
 10
0.0000
 20
0.0000
 30
0.0000
 40
0.0762
 41
0.0762
 70
0
  0
VERTEX
  8
20
 10
27.3000
 20
56.0381
 30
0.0000
 42
1.0000
  0
VERTEX
  8
20
 10
27.3000
 20
55.9619
 30
0.0000
  0
SEQEND
  8
0
  0
POLYLINE
  8
20
 66
1
 10
0.0000
 20
0.0000
 30
0.0000
 40
0.0762
 41
0.0762
 70
0
  0
VERTEX
  8
20
 10
54.0000
 20
55.9619
 30
0.0000
 42
1.0000
  0
VERTEX
  8
20
 10
54.0000
 20
56.0381
 30
0.0000
  0
SEQEND
  8
0
  0
POLYLINE
  8
20
 66
1
 10
0.0000
 20
0.0000
 30
0.0000
 40
0.1524
 41
0.1524
 70
0
  0
VERTEX
  8
20
 10
59.5000
 20
42.5000
 30
0.0000
  0
VERTEX
  8
20
 10
54.0000
 20
45.5000
 30
0.0000
  0
SEQEND
  8
0
  0
POLYLINE
  8
20
 66
1
 10
0.0000
 20
0.0000
 30
0.0000
 40
0.0762
 41
0.0762
 70
0
  0
VERTEX
  8
20
 10
54.0182
 20
45.5334
 30
0.0000
 42
1.0000
  0
VERTEX
  8
20
 10
53.9818
 20
45.4666
 30
0.0000
  0
SEQEND
  8
0
  0
POLYLINE
  8
20
 66
1
 10
0.0000
 20
0.0000
 30
0.0000
 40
0.0762
 41
0.0762
 70
0
  0
VERTEX
  8
20
 10
59.4818
 20
42.4666
 30
0.0000
 42
1.0000
  0
VERTEX
  8
20
 10
59.5182
 20
42.5334
 30
0.0000
  0
SEQEND
  8
0
  0
POLYLINE
  8
20
 66
1
 10
0.0000
 20
0.0000
 30
0.0000
 40
0.1524
 41
0.1524
 70
0
  0
VERTEX
  8
20
 10
59.5000
 20
42.5000
 30
0.0000
  0
VERTEX
  8
20
 10
73.5000
 20
49.5000
 30
0.0000
  0
SEQEND
  8
0
  0
POLYLINE
  8
20
 66
1
 10
0.0000
 20
0.0000
 30
0.0000
 40
0.0762
 41
0.0762
 70
0
  0
VERTEX
  8
20
 10
73.5170
 20
49.4659
 30
0.0000
 42
1.0000
  0
VERTEX
  8
20
 10
73.4830
 20
49.5341
 30
0.0000
  0
SEQEND
  8
0
  0
POLYLINE
  8
20
 66
1
 10
0.0000
 20
0.0000
 30
0.0000
 40
0.0762
 41
0.0762
 70
0
  0
VERTEX
  8
20
 10
59.4830
 20
42.5341
 30
0.0000
 42
1.0000
  0
VERTEX
  8
20
 10
59.5170
 20
42.4659
 30
0.0000
  0
SEQEND
  8
0
  0
POLYLINE
  8
20
 66
1
 10
0.0000
 20
0.0000
 30
0.0000
 40
0.1524
 41
0.1524
 70
0
  0
VERTEX
  8
20
 10
73.5000
 20
66.5000
 30
0.0000
  0
VERTEX
  8
20
 10
62.0000
 20
59.0000
 30
0.0000
  0
SEQEND
  8
0
  0
POLYLINE
  8
20
 66
1
 10
0.0000
 20
0.0000
 30
0.0000
 40
0.0762
 41
0.0762
 70
0
  0
VERTEX
  8
20
 10
61.9792
 20
59.0319
 30
0.0000
 42
1.0000
  0
VERTEX
  8
20
 10
62.0208
 20
58.9681
 30
0.0000
  0
SEQEND
  8
0
  0
POLYLINE
  8
20
 66
1
 10
0.0000
 20
0.0000
 30
0.0000
 40
0.0762
 41
0.0762
 70
0
  0
VERTEX
  8
20
 10
73.5208
 20
66.4681
 30
0.0000
 42
1.0000
  0
VERTEX
  8
20
 10
73.4792
 20
66.5319
 30
0.0000
  0
SEQEND
  8
0
  0
POLYLINE
  8
20
 66
1
 10
0.0000
 20
0.0000
 30
0.0000
 40
0.1524
 41
0.1524
 70
0
  0
VERTEX
  8
20
 10
62.0000
 20
59.0000
 30
0.0000
  0
VERTEX
  8
20
 10
52.5000
 20
65.0000
 30
0.0000
  0
SEQEND
  8
0
  0
POLYLINE
  8
20
 66
1
 10
0.0000
 20
0.0000
 30
0.0000
 40
0.0762
 41
0.0762
 70
0
  0
VERTEX
  8
20
 10
52.5203
 20
65.0322
 30
0.0000
 42
1.0000
  0
VERTEX
  8
20
 10
52.4797
 20
64.9678
 30
0.0000
  0
SEQEND
  8
0
  0
POLYLINE
  8
20
 66
1
 10
0.0000
 20
0.0000
 30
0.0000
 40
0.0762
 41
0.0762
 70
0
  0
VERTEX
  8
20
 10
61.9797
 20
58.9678
 30
0.0000
 42
1.0000
  0
VERTEX
  8
20
 10
62.0203
 20
59.0322
 30
0.0000
  0
SEQEND
  8
0
  0
POLYLINE
  8
20
 66
1
 10
0.0000
 20
0.0000
 30
0.0000
 40
0.1524
 41
0.1524
 70
0
  0
VERTEX
  8
20
 10
52.5000
 20
65.0000
 30
0.0000
  0
VERTEX
  8
20
 10
36.0000
 20
56.0000
 30
0.0000
  0
SEQEND
  8
0
  0
POLYLINE
  8
20
 66
1
 10
0.0000
 20
0.0000
 30
0.0000
 40
0.0762
 41
0.0762
 70
0
  0
VERTEX
  8
20
 10
35.9818
 20
56.0334
 30
0.0000
 42
1.0000
  0
VERTEX
  8
20
 10
36.0182
 20
55.9666
 30
0.0000
  0
SEQEND
  8
0
  0
POLYLINE
  8
20
 66
1
 10
0.0000
 20
0.0000
 30
0.0000
 40
0.0762
 41
0.0762
 70
0
  0
VERTEX
  8
20
 10
52.5182
 20
64.9666
 30
0.0000
 42
1.0000
  0
VERTEX
  8
20
 10
52.4818
 20
65.0334
 30
0.0000
  0
SEQEND
  8
0
  0
POLYLINE
  8
20
 66
1
 10
0.0000
 20
0.0000
 30
0.0000
 40
0.1524
 41
0.1524
 70
0
  0
VERTEX
  8
20
 10
21.0000
 20
48.0000
 30
0.0000
  0
VERTEX
  8
20
 10
15.5000
 20
54.5000
 30
0.0000
  0
SEQEND
  8
0
  0
POLYLINE
  8
20
 66
1
 10
0.0000
 20
0.0000
 30
0.0000
 40
0.0762
 41
0.0762
 70
0
  0
VERTEX
  8
20
 10
15.5291
 20
54.5246
 30
0.0000
 42
1.0000
  0
VERTEX
  8
20
 10
15.4709
 20
54.4754
 30
0.0000
  0
SEQEND
  8
0
  0
POLYLINE
  8
20
 66
1
 10
0.0000
 20
0.0000
 30
0.0000
 40
0.0762
 41
0.0762
 70
0
  0
VERTEX
  8
20
 10
20.9709
 20
47.9754
 30
0.0000
 42
1.0000
  0
VERTEX
  8
20
 10
21.0291
 20
48.0246
 30
0.0000
  0
SEQEND
  8
0
  0
POLYLINE
  8
20
 66
1
 10
0.0000
 20
0.0000
 30
0.0000
 40
0.1524
 41
0.1524
 70
0
  0
VERTEX
  8
20
 10
15.5000
 20
54.5000
 30
0.0000
  0
VERTEX
  8
20
 10
0.5000
 20
45.5000
 30
0.0000
  0
SEQEND
  8
0
  0
POLYLINE
  8
20
 66
1
 10
0.0000
 20
0.0000
 30
0.0000
 40
0.0762
 41
0.0762
 70
0
  0
VERTEX
  8
20
 10
0.4804
 20
45.5327
 30
0.0000
 42
1.0000
  0
VERTEX
  8
20
 10
0.5196
 20
45.4673
 30
0.0000
  0
SEQEND
  8
0
  0
POLYLINE
  8
20
 66
1
 10
0.0000
 20
0.0000
 30
0.0000
 40
0.0762
 41
0.0762
 70
0
  0
VERTEX
  8
20
 10
15.5196
 20
54.4673
 30
0.0000
 42
1.0000
  0
VERTEX
  8
20
 10
15.4804
 20
54.5327
 30
0.0000
  0
SEQEND
  8
0
  0
POLYLINE
  8
20
 66
1
 10
0.0000
 20
0.0000
 30
0.0000
 40
0.1524
 41
0.1524
 70
0
  0
VERTEX
  8
20
 10
0.5000
 20
41.5000
 30
0.0000
  0
VERTEX
  8
20
 10
14.4000
 20
45.1000
 30
0.0000
  0
SEQEND
  8
0
  0
POLYLINE
  8
20
 66
1
 10
0.0000
 20
0.0000
 30
0.0000
 40
0.0762
 41
0.0762
 70
0
  0
VERTEX
  8
20
 10
14.4096
 20
45.0631
 30
0.0000
 42
1.0000
  0
VERTEX
  8
20
 10
14.3904
 20
45.1369
 30
0.0000
  0
SEQEND
  8
0
  0
POLYLINE
  8
20
 66
1
 10
0.0000
 20
0.0000
 30
0.0000
 40
0.0762
 41
0.0762
 70
0
  0
VERTEX
  8
20
 10
0.4904
 20
41.5369
 30
0.0000
 42
1.0000
  0
VERTEX
  8
20
 10
0.5096
 20
41.4631
 30
0.0000
  0
SEQEND
  8
0
  0
POLYLINE
  8
20
 66
1
 10
0.0000
 20
0.0000
 30
0.0000
 40
0.1524
 41
0.1524
 70
0
  0
VERTEX
  8
20
 10
14.4000
 20
45.1000
 30
0.0000
  0
VERTEX
  8
20
 10
18.2000
 20
39.8000
 30
0.0000
  0
SEQEND
  8
0
  0
POLYLINE
  8
20
 66
1
 10
0.0000
 20
0.0000
 30
0.0000
 40
0.0762
 41
0.0762
 70
0
  0
VERTEX
  8
20
 10
18.1690
 20
39.7778
 30
0.0000
 42
1.0000
  0
VERTEX
  8
20
 10
18.2310
 20
39.8222
 30
0.0000
  0
SEQEND
  8
0
  0
POLYLINE
  8
20
 66
1
 10
0.0000
 20
0.0000
 30
0.0000
 40
0.0762
 41
0.0762
 70
0
  0
VERTEX
  8
20
 10
14.4310
 20
45.1222
 30
0.0000
 42
1.0000
  0
VERTEX
  8
20
 10
14.3690
 20
45.0778
 30
0.0000
  0
SEQEND
  8
0
  0
POLYLINE
  8
20
 66
1
 10
0.0000
 20
0.0000
 30
0.0000
 40
0.1524
 41
0.1524
 70
0
  0
VERTEX
  8
20
 10
18.2000
 20
39.8000
 30
0.0000
  0
VERTEX
  8
20
 10
27.2000
 20
42.7000
 30
0.0000
  0
SEQEND
  8
0
  0
POLYLINE
  8
20
 66
1
 10
0.0000
 20
0.0000
 30
0.0000
 40
0.0762
 41
0.0762
 70
0
  0
VERTEX
  8
20
 10
27.2117
 20
42.6637
 30
0.0000
 42
1.0000
  0
VERTEX
  8
20
 10
27.1883
 20
42.7363
 30
0.0000
  0
SEQEND
  8
0
  0
POLYLINE
  8
20
 66
1
 10
0.0000
 20
0.0000
 30
0.0000
 40
0.0762
 41
0.0762
 70
0
  0
VERTEX
  8
20
 10
18.1883
 20
39.8363
 30
0.0000
 42
1.0000
  0
VERTEX
  8
20
 10
18.2117
 20
39.7637
 30
0.0000
  0
SEQEND
  8
0
  0
POLYLINE
  8
20
 66
1
 10
0.0000
 20
0.0000
 30
0.0000
 40
0.1524
 41
0.1524
 70
0
  0
VERTEX
  8
20
 10
21.0000
 20
48.0000
 30
0.0000
  0
VERTEX
  8
20
 10
27.0000
 20
51.5000
 30
0.0000
  0
SEQEND
  8
0
  0
POLYLINE
  8
20
 66
1
 10
0.0000
 20
0.0000
 30
0.0000
 40
0.0762
 41
0.0762
 70
0
  0
VERTEX
  8
20
 10
27.0192
 20
51.4671
 30
0.0000
 42
1.0000
  0
VERTEX
  8
20
 10
26.9808
 20
51.5329
 30
0.0000
  0
SEQEND
  8
0
  0
POLYLINE
  8
20
 66
1
 10
0.0000
 20
0.0000
 30
0.0000
 40
0.0762
 41
0.0762
 70
0
  0
VERTEX
  8
20
 10
20.9808
 20
48.0329
 30
0.0000
 42
1.0000
  0
VERTEX
  8
20
 10
21.0192
 20
47.9671
 30
0.0000
  0
SEQEND
  8
0
  0
POLYLINE
  8
20
 66
1
 10
0.0000
 20
0.0000
 30
0.0000
 40
0.4572
 41
0.4572
 70
0
  0
VERTEX
  8
20
 10
8.3286
 20
9.0149
 30
0.0000
  0
VERTEX
  8
20
 10
8.3286
 20
10.1451
 30
0.0000
  0
SEQEND
  8
0
  0
POLYLINE
  8
20
 66
1
 10
0.0000
 20
0.0000
 30
0.0000
 40
0.2286
 41
0.2286
 70
0
  0
VERTEX
  8
20
 10
8.4429
 20
10.1451
 30
0.0000
 42
1.0000
  0
VERTEX
  8
20
 10
8.2143
 20
10.1451
 30
0.0000
  0
SEQEND
  8
0
  0
POLYLINE
  8
20
 66
1
 10
0.0000
 20
0.0000
 30
0.0000
 40
0.2286
 41
0.2286
 70
0
  0
VERTEX
  8
20
 10
8.2143
 20
9.0149
 30
0.0000
 42
1.0000
  0
VERTEX
  8
20
 10
8.4429
 20
9.0149
 30
0.0000
  0
SEQEND
  8
0
  0
POLYLINE
  8
20
 66
1
 10
0.0000
 20
0.0000
 30
0.0000
 40
0.4572
 41
0.4572
 70
0
  0
VERTEX
  8
20
 10
9.7413
 20
10.1451
 30
0.0000
 42
1.0000
  0
VERTEX
  8
20
 10
8.3286
 20
10.1451
 30
0.0000
  0
SEQEND
  8
0
  0
POLYLINE
  8
20
 66
1
 10
0.0000
 20
0.0000
 30
0.0000
 40
0.2286
 41
0.2286
 70
0
  0
VERTEX
  8
20
 10
9.6270
 20
10.1451
 30
0.0000
 42
1.0000
  0
VERTEX
  8
20
 10
9.8556
 20
10.1451
 30
0.0000
  0
SEQEND
  8
0
  0
POLYLINE
  8
20
 66
1
 10
0.0000
 20
0.0000
 30
0.0000
 40
0.2286
 41
0.2286
 70
0
  0
VERTEX
  8
20
 10
8.2143
 20
10.1451
 30
0.0000
 42
1.0000
  0
VERTEX
  8
20
 10
8.4429
 20
10.1451
 30
0.0000
  0
SEQEND
  8
0
  0
POLYLINE
  8
20
 66
1
 10
0.0000
 20
0.0000
 30
0.0000
 40
0.4572
 41
0.4572
 70
0
  0
VERTEX
  8
20
 10
9.7413
 20
10.1451
 30
0.0000
  0
VERTEX
  8
20
 10
9.7413
 20
9.0149
 30
0.0000
  0
SEQEND
  8
0
  0
POLYLINE
  8
20
 66
1
 10
0.0000
 20
0.0000
 30
0.0000
 40
0.2286
 41
0.2286
 70
0
  0
VERTEX
  8
20
 10
9.6270
 20
9.0149
 30
0.0000
 42
1.0000
  0
VERTEX
  8
20
 10
9.8556
 20
9.0149
 30
0.0000
  0
SEQEND
  8
0
  0
POLYLINE
  8
20
 66
1
 10
0.0000
 20
0.0000
 30
0.0000
 40
0.2286
 41
0.2286
 70
0
  0
VERTEX
  8
20
 10
9.8556
 20
10.1451
 30
0.0000
 42
1.0000
  0
VERTEX
  8
20
 10
9.6270
 20
10.1451
 30
0.0000
  0
SEQEND
  8
0
  0
POLYLINE
  8
20
 66
1
 10
0.0000
 20
0.0000
 30
0.0000
 40
0.4572
 41
0.4572
 70
0
  0
VERTEX
  8
20
 10
8.3286
 20
9.0149
 30
0.0000
 42
1.0000
  0
VERTEX
  8
20
 10
9.7413
 20
9.0149
 30
0.0000
  0
SEQEND
  8
0
  0
POLYLINE
  8
20
 66
1
 10
0.0000
 20
0.0000
 30
0.0000
 40
0.2286
 41
0.2286
 70
0
  0
VERTEX
  8
20
 10
8.4429
 20
9.0149
 30
0.0000
 42
1.0000
  0
VERTEX
  8
20
 10
8.2143
 20
9.0149
 30
0.0000
  0
SEQEND
  8
0
  0
POLYLINE
  8
20
 66
1
 10
0.0000
 20
0.0000
 30
0.0000
 40
0.2286
 41
0.2286
 70
0
  0
VERTEX
  8
20
 10
9.8556
 20
9.0149
 30
0.0000
 42
1.0000
  0
VERTEX
  8
20
 10
9.6270
 20
9.0149
 30
0.0000
  0
SEQEND
  8
0
  0
POLYLINE
  8
20
 66
1
 10
0.0000
 20
0.0000
 30
0.0000
 40
0.4572
 41
0.4572
 70
0
  0
VERTEX
  8
20
 10
10.7626
 20
7.4610
 30
0.0000
  0
VERTEX
  8
20
 10
10.7626
 20
10.0038
 30
0.0000
  0
SEQEND
  8
0
  0
POLYLINE
  8
20
 66
1
 10
0.0000
 20
0.0000
 30
0.0000
 40
0.2286
 41
0.2286
 70
0
  0
VERTEX
  8
20
 10
10.8769
 20
10.0038
 30
0.0000
 42
1.0000
  0
VERTEX
  8
20
 10
10.6483
 20
10.0038
 30
0.0000
  0
SEQEND
  8
0
  0
POLYLINE
  8
20
 66
1
 10
0.0000
 20
0.0000
 30
0.0000
 40
0.2286
 41
0.2286
 70
0
  0
VERTEX
  8
20
 10
10.6483
 20
7.4610
 30
0.0000
 42
1.0000
  0
VERTEX
  8
20
 10
10.8769
 20
7.4610
 30
0.0000
  0
SEQEND
  8
0
  0
POLYLINE
  8
20
 66
1
 10
0.0000
 20
0.0000
 30
0.0000
 40
0.4572
 41
0.4572
 70
0
  0
VERTEX
  8
20
 10
10.7626
 20
10.0038
 30
0.0000
  0
VERTEX
  8
20
 10
11.4690
 20
10.0038
 30
0.0000
  0
SEQEND
  8
0
  0
POLYLINE
  8
20
 66
1
 10
0.0000
 20
0.0000
 30
0.0000
 40
0.2286
 41
0.2286
 70
0
  0
VERTEX
  8
20
 10
11.4690
 20
9.8895
 30
0.0000
 42
1.0000
  0
VERTEX
  8
20
 10
11.4690
 20
10.1181
 30
0.0000
  0
SEQEND
  8
0
  0
POLYLINE
  8
20
 66
1
 10
0.0000
 20
0.0000
 30
0.0000
 40
0.2286
 41
0.2286
 70
0
  0
VERTEX
  8
20
 10
10.7626
 20
10.1181
 30
0.0000
 42
1.0000
  0
VERTEX
  8
20
 10
10.7626
 20
9.8895
 30
0.0000
  0
SEQEND
  8
0
  0
POLYLINE
  8
20
 66
1
 10
0.0000
 20
0.0000
 30
0.0000
 40
0.4572
 41
0.4572
 70
0
  0
VERTEX
  8
20
 10
11.8928
 20
9.5800
 30
0.0000
 42
0.4142
  0
VERTEX
  8
20
 10
11.4690
 20
10.0038
 30
0.0000
  0
SEQEND
  8
0
  0
POLYLINE
  8
20
 66
1
 10
0.0000
 20
0.0000
 30
0.0000
 40
0.2286
 41
0.2286
 70
0
  0
VERTEX
  8
20
 10
11.7785
 20
9.5800
 30
0.0000
 42
1.0000
  0
VERTEX
  8
20
 10
12.0071
 20
9.5800
 30
0.0000
  0
SEQEND
  8
0
  0
POLYLINE
  8
20
 66
1
 10
0.0000
 20
0.0000
 30
0.0000
 40
0.2286
 41
0.2286
 70
0
  0
VERTEX
  8
20
 10
11.4690
 20
10.1181
 30
0.0000
 42
1.0000
  0
VERTEX
  8
20
 10
11.4690
 20
9.8895
 30
0.0000
  0
SEQEND
  8
0
  0
POLYLINE
  8
20
 66
1
 10
0.0000
 20
0.0000
 30
0.0000
 40
0.4572
 41
0.4572
 70
0
  0
VERTEX
  8
20
 10
11.8928
 20
9.5800
 30
0.0000
  0
VERTEX
  8
20
 10
11.8928
 20
8.7324
 30
0.0000
  0
SEQEND
  8
0
  0
POLYLINE
  8
20
 66
1
 10
0.0000
 20
0.0000
 30
0.0000
 40
0.2286
 41
0.2286
 70
0
  0
VERTEX
  8
20
 10
11.7785
 20
8.7324
 30
0.0000
 42
1.0000
  0
VERTEX
  8
20
 10
12.0071
 20
8.7324
 30
0.0000
  0
SEQEND
  8
0
  0
POLYLINE
  8
20
 66
1
 10
0.0000
 20
0.0000
 30
0.0000
 40
0.2286
 41
0.2286
 70
0
  0
VERTEX
  8
20
 10
12.0071
 20
9.5800
 30
0.0000
 42
1.0000
  0
VERTEX
  8
20
 10
11.7785
 20
9.5800
 30
0.0000
  0
SEQEND
  8
0
  0
POLYLINE
  8
20
 66
1
 10
0.0000
 20
0.0000
 30
0.0000
 40
0.4572
 41
0.4572
 70
0
  0
VERTEX
  8
20
 10
11.4690
 20
8.3086
 30
0.0000
 42
0.4142
  0
VERTEX
  8
20
 10
11.8928
 20
8.7324
 30
0.0000
  0
SEQEND
  8
0
  0
POLYLINE
  8
20
 66
1
 10
0.0000
 20
0.0000
 30
0.0000
 40
0.2286
 41
0.2286
 70
0
  0
VERTEX
  8
20
 10
11.4690
 20
8.4229
 30
0.0000
 42
1.0000
  0
VERTEX
  8
20
 10
11.4690
 20
8.1943
 30
0.0000
  0
SEQEND
  8
0
  0
POLYLINE
  8
20
 66
1
 10
0.0000
 20
0.0000
 30
0.0000
 40
0.2286
 41
0.2286
 70
0
  0
VERTEX
  8
20
 10
12.0071
 20
8.7324
 30
0.0000
 42
1.0000
  0
VERTEX
  8
20
 10
11.7785
 20
8.7324
 30
0.0000
  0
SEQEND
  8
0
  0
POLYLINE
  8
20
 66
1
 10
0.0000
 20
0.0000
 30
0.0000
 40
0.4572
 41
0.4572
 70
0
  0
VERTEX
  8
20
 10
11.4690
 20
8.3086
 30
0.0000
  0
VERTEX
  8
20
 10
10.7626
 20
8.3086
 30
0.0000
  0
SEQEND
  8
0
  0
POLYLINE
  8
20
 66
1
 10
0.0000
 20
0.0000
 30
0.0000
 40
0.2286
 41
0.2286
 70
0
  0
VERTEX
  8
20
 10
10.7626
 20
8.4229
 30
0.0000
 42
1.0000
  0
VERTEX
  8
20
 10
10.7626
 20
8.1943
 30
0.0000
  0
SEQEND
  8
0
  0
POLYLINE
  8
20
 66
1
 10
0.0000
 20
0.0000
 30
0.0000
 40
0.2286
 41
0.2286
 70
0
  0
VERTEX
  8
20
 10
11.4690
 20
8.1943
 30
0.0000
 42
1.0000
  0
VERTEX
  8
20
 10
11.4690
 20
8.4229
 30
0.0000
  0
SEQEND
  8
0
  0
POLYLINE
  8
20
 66
1
 10
0.0000
 20
0.0000
 30
0.0000
 40
0.4572
 41
0.4572
 70
0
  0
VERTEX
  8
20
 10
13.9312
 20
8.3086
 30
0.0000
  0
VERTEX
  8
20
 10
13.2249
 20
8.3086
 30
0.0000
  0
SEQEND
  8
0
  0
POLYLINE
  8
20
 66
1
 10
0.0000
 20
0.0000
 30
0.0000
 40
0.2286
 41
0.2286
 70
0
  0
VERTEX
  8
20
 10
13.2249
 20
8.4229
 30
0.0000
 42
1.0000
  0
VERTEX
  8
20
 10
13.2249
 20
8.1943
 30
0.0000
  0
SEQEND
  8
0
  0
POLYLINE
  8
20
 66
1
 10
0.0000
 20
0.0000
 30
0.0000
 40
0.2286
 41
0.2286
 70
0
  0
VERTEX
  8
20
 10
13.9312
 20
8.1943
 30
0.0000
 42
1.0000
  0
VERTEX
  8
20
 10
13.9312
 20
8.4229
 30
0.0000
  0
SEQEND
  8
0
  0
POLYLINE
  8
20
 66
1
 10
0.0000
 20
0.0000
 30
0.0000
 40
0.4572
 41
0.4572
 70
0
  0
VERTEX
  8
20
 10
12.8011
 20
8.7324
 30
0.0000
 42
0.4142
  0
VERTEX
  8
20
 10
13.2249
 20
8.3086
 30
0.0000
  0
SEQEND
  8
0
  0
POLYLINE
  8
20
 66
1
 10
0.0000
 20
0.0000
 30
0.0000
 40
0.2286
 41
0.2286
 70
0
  0
VERTEX
  8
20
 10
12.9154
 20
8.7324
 30
0.0000
 42
1.0000
  0
VERTEX
  8
20
 10
12.6868
 20
8.7324
 30
0.0000
  0
SEQEND
  8
0
  0
POLYLINE
  8
20
 66
1
 10
0.0000
 20
0.0000
 30
0.0000
 40
0.2286
 41
0.2286
 70
0
  0
VERTEX
  8
20
 10
13.2249
 20
8.1943
 30
0.0000
 42
1.0000
  0
VERTEX
  8
20
 10
13.2249
 20
8.4229
 30
0.0000
  0
SEQEND
  8
0
  0
POLYLINE
  8
20
 66
1
 10
0.0000
 20
0.0000
 30
0.0000
 40
0.4572
 41
0.4572
 70
0
  0
VERTEX
  8
20
 10
12.8011
 20
8.7324
 30
0.0000
  0
VERTEX
  8
20
 10
12.8011
 20
9.4387
 30
0.0000
  0
SEQEND
  8
0
  0
POLYLINE
  8
20
 66
1
 10
0.0000
 20
0.0000
 30
0.0000
 40
0.2286
 41
0.2286
 70
0
  0
VERTEX
  8
20
 10
12.9154
 20
9.4387
 30
0.0000
 42
1.0000
  0
VERTEX
  8
20
 10
12.6868
 20
9.4387
 30
0.0000
  0
SEQEND
  8
0
  0
POLYLINE
  8
20
 66
1
 10
0.0000
 20
0.0000
 30
0.0000
 40
0.2286
 41
0.2286
 70
0
  0
VERTEX
  8
20
 10
12.6868
 20
8.7324
 30
0.0000
 42
1.0000
  0
VERTEX
  8
20
 10
12.9154
 20
8.7324
 30
0.0000
  0
SEQEND
  8
0
  0
POLYLINE
  8
20
 66
1
 10
0.0000
 20
0.0000
 30
0.0000
 40
0.4572
 41
0.4572
 70
0
  0
VERTEX
  8
20
 10
13.9312
 20
9.4387
 30
0.0000
 42
1.0000
  0
VERTEX
  8
20
 10
12.8011
 20
9.4387
 30
0.0000
  0
SEQEND
  8
0
  0
POLYLINE
  8
20
 66
1
 10
0.0000
 20
0.0000
 30
0.0000
 40
0.2286
 41
0.2286
 70
0
  0
VERTEX
  8
20
 10
13.8169
 20
9.4387
 30
0.0000
 42
1.0000
  0
VERTEX
  8
20
 10
14.0455
 20
9.4387
 30
0.0000
  0
SEQEND
  8
0
  0
POLYLINE
  8
20
 66
1
 10
0.0000
 20
0.0000
 30
0.0000
 40
0.2286
 41
0.2286
 70
0
  0
VERTEX
  8
20
 10
12.6868
 20
9.4387
 30
0.0000
 42
1.0000
  0
VERTEX
  8
20
 10
12.9154
 20
9.4387
 30
0.0000
  0
SEQEND
  8
0
  0
POLYLINE
  8
20
 66
1
 10
0.0000
 20
0.0000
 30
0.0000
 40
0.4572
 41
0.4572
 70
0
  0
VERTEX
  8
20
 10
13.9312
 20
9.4387
 30
0.0000
  0
VERTEX
  8
20
 10
13.9312
 20
9.1562
 30
0.0000
  0
SEQEND
  8
0
  0
POLYLINE
  8
20
 66
1
 10
0.0000
 20
0.0000
 30
0.0000
 40
0.2286
 41
0.2286
 70
0
  0
VERTEX
  8
20
 10
13.8169
 20
9.1562
 30
0.0000
 42
1.0000
  0
VERTEX
  8
20
 10
14.0455
 20
9.1562
 30
0.0000
  0
SEQEND
  8
0
  0
POLYLINE
  8
20
 66
1
 10
0.0000
 20
0.0000
 30
0.0000
 40
0.2286
 41
0.2286
 70
0
  0
VERTEX
  8
20
 10
14.0455
 20
9.4387
 30
0.0000
 42
1.0000
  0
VERTEX
  8
20
 10
13.8169
 20
9.4387
 30
0.0000
  0
SEQEND
  8
0
  0
POLYLINE
  8
20
 66
1
 10
0.0000
 20
0.0000
 30
0.0000
 40
0.4572
 41
0.4572
 70
0
  0
VERTEX
  8
20
 10
13.9312
 20
9.1562
 30
0.0000
  0
VERTEX
  8
20
 10
12.8011
 20
9.1562
 30
0.0000
  0
SEQEND
  8
0
  0
POLYLINE
  8
20
 66
1
 10
0.0000
 20
0.0000
 30
0.0000
 40
0.2286
 41
0.2286
 70
0
  0
VERTEX
  8
20
 10
12.8011
 20
9.2705
 30
0.0000
 42
1.0000
  0
VERTEX
  8
20
 10
12.8011
 20
9.0419
 30
0.0000
  0
SEQEND
  8
0
  0
POLYLINE
  8
20
 66
1
 10
0.0000
 20
0.0000
 30
0.0000
 40
0.2286
 41
0.2286
 70
0
  0
VERTEX
  8
20
 10
13.9312
 20
9.0419
 30
0.0000
 42
1.0000
  0
VERTEX
  8
20
 10
13.9312
 20
9.2705
 30
0.0000
  0
SEQEND
  8
0
  0
POLYLINE
  8
20
 66
1
 10
0.0000
 20
0.0000
 30
0.0000
 40
0.4572
 41
0.4572
 70
0
  0
VERTEX
  8
20
 10
14.9274
 20
8.3086
 30
0.0000
  0
VERTEX
  8
20
 10
14.9274
 20
10.0038
 30
0.0000
  0
SEQEND
  8
0
  0
POLYLINE
  8
20
 66
1
 10
0.0000
 20
0.0000
 30
0.0000
 40
0.2286
 41
0.2286
 70
0
  0
VERTEX
  8
20
 10
15.0417
 20
10.0038
 30
0.0000
 42
1.0000
  0
VERTEX
  8
20
 10
14.8131
 20
10.0038
 30
0.0000
  0
SEQEND
  8
0
  0
POLYLINE
  8
20
 66
1
 10
0.0000
 20
0.0000
 30
0.0000
 40
0.2286
 41
0.2286
 70
0
  0
VERTEX
  8
20
 10
14.8131
 20
8.3086
 30
0.0000
 42
1.0000
  0
VERTEX
  8
20
 10
15.0417
 20
8.3086
 30
0.0000
  0
SEQEND
  8
0
  0
POLYLINE
  8
20
 66
1
 10
0.0000
 20
0.0000
 30
0.0000
 40
0.4572
 41
0.4572
 70
0
  0
VERTEX
  8
20
 10
14.9274
 20
10.0038
 30
0.0000
  0
VERTEX
  8
20
 10
15.6337
 20
10.0038
 30
0.0000
  0
SEQEND
  8
0
  0
POLYLINE
  8
20
 66
1
 10
0.0000
 20
0.0000
 30
0.0000
 40
0.2286
 41
0.2286
 70
0
  0
VERTEX
  8
20
 10
15.6337
 20
9.8895
 30
0.0000
 42
1.0000
  0
VERTEX
  8
20
 10
15.6337
 20
10.1181
 30
0.0000
  0
SEQEND
  8
0
  0
POLYLINE
  8
20
 66
1
 10
0.0000
 20
0.0000
 30
0.0000
 40
0.2286
 41
0.2286
 70
0
  0
VERTEX
  8
20
 10
14.9274
 20
10.1181
 30
0.0000
 42
1.0000
  0
VERTEX
  8
20
 10
14.9274
 20
9.8895
 30
0.0000
  0
SEQEND
  8
0
  0
POLYLINE
  8
20
 66
1
 10
0.0000
 20
0.0000
 30
0.0000
 40
0.4572
 41
0.4572
 70
0
  0
VERTEX
  8
20
 10
16.0575
 20
9.5800
 30
0.0000
 42
0.4142
  0
VERTEX
  8
20
 10
15.6337
 20
10.0038
 30
0.0000
  0
SEQEND
  8
0
  0
POLYLINE
  8
20
 66
1
 10
0.0000
 20
0.0000
 30
0.0000
 40
0.2286
 41
0.2286
 70
0
  0
VERTEX
  8
20
 10
15.9432
 20
9.5800
 30
0.0000
 42
1.0000
  0
VERTEX
  8
20
 10
16.1718
 20
9.5800
 30
0.0000
  0
SEQEND
  8
0
  0
POLYLINE
  8
20
 66
1
 10
0.0000
 20
0.0000
 30
0.0000
 40
0.2286
 41
0.2286
 70
0
  0
VERTEX
  8
20
 10
15.6337
 20
10.1181
 30
0.0000
 42
1.0000
  0
VERTEX
  8
20
 10
15.6337
 20
9.8895
 30
0.0000
  0
SEQEND
  8
0
  0
POLYLINE
  8
20
 66
1
 10
0.0000
 20
0.0000
 30
0.0000
 40
0.4572
 41
0.4572
 70
0
  0
VERTEX
  8
20
 10
16.0575
 20
9.5800
 30
0.0000
  0
VERTEX
  8
20
 10
16.0575
 20
8.3086
 30
0.0000
  0
SEQEND
  8
0
  0
POLYLINE
  8
20
 66
1
 10
0.0000
 20
0.0000
 30
0.0000
 40
0.2286
 41
0.2286
 70
0
  0
VERTEX
  8
20
 10
15.9432
 20
8.3086
 30
0.0000
 42
1.0000
  0
VERTEX
  8
20
 10
16.1718
 20
8.3086
 30
0.0000
  0
SEQEND
  8
0
  0
POLYLINE
  8
20
 66
1
 10
0.0000
 20
0.0000
 30
0.0000
 40
0.2286
 41
0.2286
 70
0
  0
VERTEX
  8
20
 10
16.1718
 20
9.5800
 30
0.0000
 42
1.0000
  0
VERTEX
  8
20
 10
15.9432
 20
9.5800
 30
0.0000
  0
SEQEND
  8
0
  0
POLYLINE
  8
20
 66
1
 10
0.0000
 20
0.0000
 30
0.0000
 40
0.4572
 41
0.4572
 70
0
  0
VERTEX
  8
20
 10
18.2835
 20
8.3086
 30
0.0000
  0
VERTEX
  8
20
 10
17.1533
 20
8.3086
 30
0.0000
  0
SEQEND
  8
0
  0
POLYLINE
  8
20
 66
1
 10
0.0000
 20
0.0000
 30
0.0000
 40
0.2286
 41
0.2286
 70
0
  0
VERTEX
  8
20
 10
17.1533
 20
8.4229
 30
0.0000
 42
1.0000
  0
VERTEX
  8
20
 10
17.1533
 20
8.1943
 30
0.0000
  0
SEQEND
  8
0
  0
POLYLINE
  8
20
 66
1
 10
0.0000
 20
0.0000
 30
0.0000
 40
0.2286
 41
0.2286
 70
0
  0
VERTEX
  8
20
 10
18.2835
 20
8.1943
 30
0.0000
 42
1.0000
  0
VERTEX
  8
20
 10
18.2835
 20
8.4229
 30
0.0000
  0
SEQEND
  8
0
  0
POLYLINE
  8
20
 66
1
 10
0.0000
 20
0.0000
 30
0.0000
 40
0.4572
 41
0.4572
 70
0
  0
VERTEX
  8
20
 10
17.1533
 20
8.3086
 30
0.0000
  0
VERTEX
  8
20
 10
17.1533
 20
10.8514
 30
0.0000
  0
SEQEND
  8
0
  0
POLYLINE
  8
20
 66
1
 10
0.0000
 20
0.0000
 30
0.0000
 40
0.2286
 41
0.2286
 70
0
  0
VERTEX
  8
20
 10
17.2676
 20
10.8514
 30
0.0000
 42
1.0000
  0
VERTEX
  8
20
 10
17.0390
 20
10.8514
 30
0.0000
  0
SEQEND
  8
0
  0
POLYLINE
  8
20
 66
1
 10
0.0000
 20
0.0000
 30
0.0000
 40
0.2286
 41
0.2286
 70
0
  0
VERTEX
  8
20
 10
17.0390
 20
8.3086
 30
0.0000
 42
1.0000
  0
VERTEX
  8
20
 10
17.2676
 20
8.3086
 30
0.0000
  0
SEQEND
  8
0
  0
POLYLINE
  8
20
 66
1
 10
0.0000
 20
0.0000
 30
0.0000
 40
0.4572
 41
0.4572
 70
0
  0
VERTEX
  8
20
 10
17.1533
 20
10.8514
 30
0.0000
  0
VERTEX
  8
20
 10
18.2835
 20
10.8514
 30
0.0000
  0
SEQEND
  8
0
  0
POLYLINE
  8
20
 66
1
 10
0.0000
 20
0.0000
 30
0.0000
 40
0.2286
 41
0.2286
 70
0
  0
VERTEX
  8
20
 10
18.2835
 20
10.7371
 30
0.0000
 42
1.0000
  0
VERTEX
  8
20
 10
18.2835
 20
10.9657
 30
0.0000
  0
SEQEND
  8
0
  0
POLYLINE
  8
20
 66
1
 10
0.0000
 20
0.0000
 30
0.0000
 40
0.2286
 41
0.2286
 70
0
  0
VERTEX
  8
20
 10
17.1533
 20
10.9657
 30
0.0000
 42
1.0000
  0
VERTEX
  8
20
 10
17.1533
 20
10.7371
 30
0.0000
  0
SEQEND
  8
0
  0
POLYLINE
  8
20
 66
1
 10
0.0000
 20
0.0000
 30
0.0000
 40
0.4572
 41
0.4572
 70
0
  0
VERTEX
  8
20
 10
17.1533
 20
9.7213
 30
0.0000
  0
VERTEX
  8
20
 10
18.0009
 20
9.7213
 30
0.0000
  0
SEQEND
  8
0
  0
POLYLINE
  8
20
 66
1
 10
0.0000
 20
0.0000
 30
0.0000
 40
0.2286
 41
0.2286
 70
0
  0
VERTEX
  8
20
 10
18.0009
 20
9.6070
 30
0.0000
 42
1.0000
  0
VERTEX
  8
20
 10
18.0009
 20
9.8356
 30
0.0000
  0
SEQEND
  8
0
  0
POLYLINE
  8
20
 66
1
 10
0.0000
 20
0.0000
 30
0.0000
 40
0.2286
 41
0.2286
 70
0
  0
VERTEX
  8
20
 10
17.1533
 20
9.8356
 30
0.0000
 42
1.0000
  0
VERTEX
  8
20
 10
17.1533
 20
9.6070
 30
0.0000
  0
SEQEND
  8
0
  0
POLYLINE
  8
20
 66
1
 10
0.0000
 20
0.0000
 30
0.0000
 40
0.4572
 41
0.4572
 70
0
  0
VERTEX
  8
20
 10
19.1798
 20
8.3086
 30
0.0000
  0
VERTEX
  8
20
 10
19.1798
 20
10.0038
 30
0.0000
  0
SEQEND
  8
0
  0
POLYLINE
  8
20
 66
1
 10
0.0000
 20
0.0000
 30
0.0000
 40
0.2286
 41
0.2286
 70
0
  0
VERTEX
  8
20
 10
19.2941
 20
10.0038
 30
0.0000
 42
1.0000
  0
VERTEX
  8
20
 10
19.0655
 20
10.0038
 30
0.0000
  0
SEQEND
  8
0
  0
POLYLINE
  8
20
 66
1
 10
0.0000
 20
0.0000
 30
0.0000
 40
0.2286
 41
0.2286
 70
0
  0
VERTEX
  8
20
 10
19.0655
 20
8.3086
 30
0.0000
 42
1.0000
  0
VERTEX
  8
20
 10
19.2941
 20
8.3086
 30
0.0000
  0
SEQEND
  8
0
  0
POLYLINE
  8
20
 66
1
 10
0.0000
 20
0.0000
 30
0.0000
 40
0.4572
 41
0.4572
 70
0
  0
VERTEX
  8
20
 10
19.1798
 20
10.0038
 30
0.0000
  0
VERTEX
  8
20
 10
19.8862
 20
10.0038
 30
0.0000
  0
SEQEND
  8
0
  0
POLYLINE
  8
20
 66
1
 10
0.0000
 20
0.0000
 30
0.0000
 40
0.2286
 41
0.2286
 70
0
  0
VERTEX
  8
20
 10
19.8862
 20
9.8895
 30
0.0000
 42
1.0000
  0
VERTEX
  8
20
 10
19.8862
 20
10.1181
 30
0.0000
  0
SEQEND
  8
0
  0
POLYLINE
  8
20
 66
1
 10
0.0000
 20
0.0000
 30
0.0000
 40
0.2286
 41
0.2286
 70
0
  0
VERTEX
  8
20
 10
19.1798
 20
10.1181
 30
0.0000
 42
1.0000
  0
VERTEX
  8
20
 10
19.1798
 20
9.8895
 30
0.0000
  0
SEQEND
  8
0
  0
POLYLINE
  8
20
 66
1
 10
0.0000
 20
0.0000
 30
0.0000
 40
0.4572
 41
0.4572
 70
0
  0
VERTEX
  8
20
 10
20.3100
 20
9.5800
 30
0.0000
 42
0.4142
  0
VERTEX
  8
20
 10
19.8862
 20
10.0038
 30
0.0000
  0
SEQEND
  8
0
  0
POLYLINE
  8
20
 66
1
 10
0.0000
 20
0.0000
 30
0.0000
 40
0.2286
 41
0.2286
 70
0
  0
VERTEX
  8
20
 10
20.1957
 20
9.5800
 30
0.0000
 42
1.0000
  0
VERTEX
  8
20
 10
20.4243
 20
9.5800
 30
0.0000
  0
SEQEND
  8
0
  0
POLYLINE
  8
20
 66
1
 10
0.0000
 20
0.0000
 30
0.0000
 40
0.2286
 41
0.2286
 70
0
  0
VERTEX
  8
20
 10
19.8862
 20
10.1181
 30
0.0000
 42
1.0000
  0
VERTEX
  8
20
 10
19.8862
 20
9.8895
 30
0.0000
  0
SEQEND
  8
0
  0
POLYLINE
  8
20
 66
1
 10
0.0000
 20
0.0000
 30
0.0000
 40
0.4572
 41
0.4572
 70
0
  0
VERTEX
  8
20
 10
20.3100
 20
9.5800
 30
0.0000
  0
VERTEX
  8
20
 10
20.3100
 20
8.3086
 30
0.0000
  0
SEQEND
  8
0
  0
POLYLINE
  8
20
 66
1
 10
0.0000
 20
0.0000
 30
0.0000
 40
0.2286
 41
0.2286
 70
0
  0
VERTEX
  8
20
 10
20.1957
 20
8.3086
 30
0.0000
 42
1.0000
  0
VERTEX
  8
20
 10
20.4243
 20
8.3086
 30
0.0000
  0
SEQEND
  8
0
  0
POLYLINE
  8
20
 66
1
 10
0.0000
 20
0.0000
 30
0.0000
 40
0.2286
 41
0.2286
 70
0
  0
VERTEX
  8
20
 10
20.4243
 20
9.5800
 30
0.0000
 42
1.0000
  0
VERTEX
  8
20
 10
20.1957
 20
9.5800
 30
0.0000
  0
SEQEND
  8
0
  0
POLYLINE
  8
20
 66
1
 10
0.0000
 20
0.0000
 30
0.0000
 40
0.4572
 41
0.4572
 70
0
  0
VERTEX
  8
20
 10
22.4362
 20
8.3086
 30
0.0000
  0
VERTEX
  8
20
 10
21.7299
 20
8.3086
 30
0.0000
  0
SEQEND
  8
0
  0
POLYLINE
  8
20
 66
1
 10
0.0000
 20
0.0000
 30
0.0000
 40
0.2286
 41
0.2286
 70
0
  0
VERTEX
  8
20
 10
21.7299
 20
8.4229
 30
0.0000
 42
1.0000
  0
VERTEX
  8
20
 10
21.7299
 20
8.1943
 30
0.0000
  0
SEQEND
  8
0
  0
POLYLINE
  8
20
 66
1
 10
0.0000
 20
0.0000
 30
0.0000
 40
0.2286
 41
0.2286
 70
0
  0
VERTEX
  8
20
 10
22.4362
 20
8.1943
 30
0.0000
 42
1.0000
  0
VERTEX
  8
20
 10
22.4362
 20
8.4229
 30
0.0000
  0
SEQEND
  8
0
  0
POLYLINE
  8
20
 66
1
 10
0.0000
 20
0.0000
 30
0.0000
 40
0.4572
 41
0.4572
 70
0
  0
VERTEX
  8
20
 10
21.3061
 20
8.7324
 30
0.0000
 42
0.4142
  0
VERTEX
  8
20
 10
21.7299
 20
8.3086
 30
0.0000
  0
SEQEND
  8
0
  0
POLYLINE
  8
20
 66
1
 10
0.0000
 20
0.0000
 30
0.0000
 40
0.2286
 41
0.2286
 70
0
  0
VERTEX
  8
20
 10
21.4204
 20
8.7324
 30
0.0000
 42
1.0000
  0
VERTEX
  8
20
 10
21.1918
 20
8.7324
 30
0.0000
  0
SEQEND
  8
0
  0
POLYLINE
  8
20
 66
1
 10
0.0000
 20
0.0000
 30
0.0000
 40
0.2286
 41
0.2286
 70
0
  0
VERTEX
  8
20
 10
21.7299
 20
8.1943
 30
0.0000
 42
1.0000
  0
VERTEX
  8
20
 10
21.7299
 20
8.4229
 30
0.0000
  0
SEQEND
  8
0
  0
POLYLINE
  8
20
 66
1
 10
0.0000
 20
0.0000
 30
0.0000
 40
0.4572
 41
0.4572
 70
0
  0
VERTEX
  8
20
 10
21.3061
 20
8.7324
 30
0.0000
  0
VERTEX
  8
20
 10
21.3061
 20
9.4387
 30
0.0000
  0
SEQEND
  8
0
  0
POLYLINE
  8
20
 66
1
 10
0.0000
 20
0.0000
 30
0.0000
 40
0.2286
 41
0.2286
 70
0
  0
VERTEX
  8
20
 10
21.4204
 20
9.4387
 30
0.0000
 42
1.0000
  0
VERTEX
  8
20
 10
21.1918
 20
9.4387
 30
0.0000
  0
SEQEND
  8
0
  0
POLYLINE
  8
20
 66
1
 10
0.0000
 20
0.0000
 30
0.0000
 40
0.2286
 41
0.2286
 70
0
  0
VERTEX
  8
20
 10
21.1918
 20
8.7324
 30
0.0000
 42
1.0000
  0
VERTEX
  8
20
 10
21.4204
 20
8.7324
 30
0.0000
  0
SEQEND
  8
0
  0
POLYLINE
  8
20
 66
1
 10
0.0000
 20
0.0000
 30
0.0000
 40
0.4572
 41
0.4572
 70
0
  0
VERTEX
  8
20
 10
22.4362
 20
9.4387
 30
0.0000
 42
1.0000
  0
VERTEX
  8
20
 10
21.3061
 20
9.4387
 30
0.0000
  0
SEQEND
  8
0
  0
POLYLINE
  8
20
 66
1
 10
0.0000
 20
0.0000
 30
0.0000
 40
0.2286
 41
0.2286
 70
0
  0
VERTEX
  8
20
 10
22.3219
 20
9.4387
 30
0.0000
 42
1.0000
  0
VERTEX
  8
20
 10
22.5505
 20
9.4387
 30
0.0000
  0
SEQEND
  8
0
  0
POLYLINE
  8
20
 66
1
 10
0.0000
 20
0.0000
 30
0.0000
 40
0.2286
 41
0.2286
 70
0
  0
VERTEX
  8
20
 10
21.1918
 20
9.4387
 30
0.0000
 42
1.0000
  0
VERTEX
  8
20
 10
21.4204
 20
9.4387
 30
0.0000
  0
SEQEND
  8
0
  0
POLYLINE
  8
20
 66
1
 10
0.0000
 20
0.0000
 30
0.0000
 40
0.4572
 41
0.4572
 70
0
  0
VERTEX
  8
20
 10
22.4362
 20
9.4387
 30
0.0000
  0
VERTEX
  8
20
 10
22.4362
 20
9.1562
 30
0.0000
  0
SEQEND
  8
0
  0
POLYLINE
  8
20
 66
1
 10
0.0000
 20
0.0000
 30
0.0000
 40
0.2286
 41
0.2286
 70
0
  0
VERTEX
  8
20
 10
22.3219
 20
9.1562
 30
0.0000
 42
1.0000
  0
VERTEX
  8
20
 10
22.5505
 20
9.1562
 30
0.0000
  0
SEQEND
  8
0
  0
POLYLINE
  8
20
 66
1
 10
0.0000
 20
0.0000
 30
0.0000
 40
0.2286
 41
0.2286
 70
0
  0
VERTEX
  8
20
 10
22.5505
 20
9.4387
 30
0.0000
 42
1.0000
  0
VERTEX
  8
20
 10
22.3219
 20
9.4387
 30
0.0000
  0
SEQEND
  8
0
  0
POLYLINE
  8
20
 66
1
 10
0.0000
 20
0.0000
 30
0.0000
 40
0.4572
 41
0.4572
 70
0
  0
VERTEX
  8
20
 10
22.4362
 20
9.1562
 30
0.0000
  0
VERTEX
  8
20
 10
21.3061
 20
9.1562
 30
0.0000
  0
SEQEND
  8
0
  0
POLYLINE
  8
20
 66
1
 10
0.0000
 20
0.0000
 30
0.0000
 40
0.2286
 41
0.2286
 70
0
  0
VERTEX
  8
20
 10
21.3061
 20
9.2705
 30
0.0000
 42
1.0000
  0
VERTEX
  8
20
 10
21.3061
 20
9.0419
 30
0.0000
  0
SEQEND
  8
0
  0
POLYLINE
  8
20
 66
1
 10
0.0000
 20
0.0000
 30
0.0000
 40
0.2286
 41
0.2286
 70
0
  0
VERTEX
  8
20
 10
22.4362
 20
9.0419
 30
0.0000
 42
1.0000
  0
VERTEX
  8
20
 10
22.4362
 20
9.2705
 30
0.0000
  0
SEQEND
  8
0
  0
POLYLINE
  8
20
 66
1
 10
0.0000
 20
0.0000
 30
0.0000
 40
0.4572
 41
0.4572
 70
0
  0
VERTEX
  8
20
 10
23.4442
 20
8.3086
 30
0.0000
  0
VERTEX
  8
20
 10
23.4442
 20
10.0038
 30
0.0000
  0
SEQEND
  8
0
  0
POLYLINE
  8
20
 66
1
 10
0.0000
 20
0.0000
 30
0.0000
 40
0.2286
 41
0.2286
 70
0
  0
VERTEX
  8
20
 10
23.5585
 20
10.0038
 30
0.0000
 42
1.0000
  0
VERTEX
  8
20
 10
23.3299
 20
10.0038
 30
0.0000
  0
SEQEND
  8
0
  0
POLYLINE
  8
20
 66
1
 10
0.0000
 20
0.0000
 30
0.0000
 40
0.2286
 41
0.2286
 70
0
  0
VERTEX
  8
20
 10
23.3299
 20
8.3086
 30
0.0000
 42
1.0000
  0
VERTEX
  8
20
 10
23.5585
 20
8.3086
 30
0.0000
  0
SEQEND
  8
0
  0
POLYLINE
  8
20
 66
1
 10
0.0000
 20
0.0000
 30
0.0000
 40
0.4572
 41
0.4572
 70
0
  0
VERTEX
  8
20
 10
23.4442
 20
10.0038
 30
0.0000
  0
VERTEX
  8
20
 10
24.2918
 20
10.0038
 30
0.0000
  0
SEQEND
  8
0
  0
POLYLINE
  8
20
 66
1
 10
0.0000
 20
0.0000
 30
0.0000
 40
0.2286
 41
0.2286
 70
0
  0
VERTEX
  8
20
 10
24.2918
 20
9.8895
 30
0.0000
 42
1.0000
  0
VERTEX
  8
20
 10
24.2918
 20
10.1181
 30
0.0000
  0
SEQEND
  8
0
  0
POLYLINE
  8
20
 66
1
 10
0.0000
 20
0.0000
 30
0.0000
 40
0.2286
 41
0.2286
 70
0
  0
VERTEX
  8
20
 10
23.4442
 20
10.1181
 30
0.0000
 42
1.0000
  0
VERTEX
  8
20
 10
23.4442
 20
9.8895
 30
0.0000
  0
SEQEND
  8
0
  0
POLYLINE
  8
20
 66
1
 10
0.0000
 20
0.0000
 30
0.0000
 40
0.4572
 41
0.4572
 70
0
  0
VERTEX
  8
20
 10
24.2918
 20
10.0038
 30
0.0000
  0
VERTEX
  8
20
 10
24.2918
 20
9.7213
 30
0.0000
  0
SEQEND
  8
0
  0
POLYLINE
  8
20
 66
1
 10
0.0000
 20
0.0000
 30
0.0000
 40
0.2286
 41
0.2286
 70
0
  0
VERTEX
  8
20
 10
24.1775
 20
9.7213
 30
0.0000
 42
1.0000
  0
VERTEX
  8
20
 10
24.4061
 20
9.7213
 30
0.0000
  0
SEQEND
  8
0
  0
POLYLINE
  8
20
 66
1
 10
0.0000
 20
0.0000
 30
0.0000
 40
0.2286
 41
0.2286
 70
0
  0
VERTEX
  8
20
 10
24.4061
 20
10.0038
 30
0.0000
 42
1.0000
  0
VERTEX
  8
20
 10
24.1775
 20
10.0038
 30
0.0000
  0
SEQEND
  8
0
  0
POLYLINE
  8
20
 66
1
 10
0.0000
 20
0.0000
 30
0.0000
 40
0.4572
 41
0.4572
 70
0
  0
VERTEX
  8
20
 10
26.1284
 20
8.3086
 30
0.0000
  0
VERTEX
  8
20
 10
25.4221
 20
8.3086
 30
0.0000
  0
SEQEND
  8
0
  0
POLYLINE
  8
20
 66
1
 10
0.0000
 20
0.0000
 30
0.0000
 40
0.2286
 41
0.2286
 70
0
  0
VERTEX
  8
20
 10
25.4221
 20
8.4229
 30
0.0000
 42
1.0000
  0
VERTEX
  8
20
 10
25.4221
 20
8.1943
 30
0.0000
  0
SEQEND
  8
0
  0
POLYLINE
  8
20
 66
1
 10
0.0000
 20
0.0000
 30
0.0000
 40
0.2286
 41
0.2286
 70
0
  0
VERTEX
  8
20
 10
26.1284
 20
8.1943
 30
0.0000
 42
1.0000
  0
VERTEX
  8
20
 10
26.1284
 20
8.4229
 30
0.0000
  0
SEQEND
  8
0
  0
POLYLINE
  8
20
 66
1
 10
0.0000
 20
0.0000
 30
0.0000
 40
0.4572
 41
0.4572
 70
0
  0
VERTEX
  8
20
 10
24.9983
 20
8.7324
 30
0.0000
 42
0.4142
  0
VERTEX
  8
20
 10
25.4221
 20
8.3086
 30
0.0000
  0
SEQEND
  8
0
  0
POLYLINE
  8
20
 66
1
 10
0.0000
 20
0.0000
 30
0.0000
 40
0.2286
 41
0.2286
 70
0
  0
VERTEX
  8
20
 10
25.1126
 20
8.7324
 30
0.0000
 42
1.0000
  0
VERTEX
  8
20
 10
24.8840
 20
8.7324
 30
0.0000
  0
SEQEND
  8
0
  0
POLYLINE
  8
20
 66
1
 10
0.0000
 20
0.0000
 30
0.0000
 40
0.2286
 41
0.2286
 70
0
  0
VERTEX
  8
20
 10
25.4221
 20
8.1943
 30
0.0000
 42
1.0000
  0
VERTEX
  8
20
 10
25.4221
 20
8.4229
 30
0.0000
  0
SEQEND
  8
0
  0
POLYLINE
  8
20
 66
1
 10
0.0000
 20
0.0000
 30
0.0000
 40
0.4572
 41
0.4572
 70
0
  0
VERTEX
  8
20
 10
24.9983
 20
8.7324
 30
0.0000
  0
VERTEX
  8
20
 10
24.9983
 20
9.5800
 30
0.0000
  0
SEQEND
  8
0
  0
POLYLINE
  8
20
 66
1
 10
0.0000
 20
0.0000
 30
0.0000
 40
0.2286
 41
0.2286
 70
0
  0
VERTEX
  8
20
 10
25.1126
 20
9.5800
 30
0.0000
 42
1.0000
  0
VERTEX
  8
20
 10
24.8840
 20
9.5800
 30
0.0000
  0
SEQEND
  8
0
  0
POLYLINE
  8
20
 66
1
 10
0.0000
 20
0.0000
 30
0.0000
 40
0.2286
 41
0.2286
 70
0
  0
VERTEX
  8
20
 10
24.8840
 20
8.7324
 30
0.0000
 42
1.0000
  0
VERTEX
  8
20
 10
25.1126
 20
8.7324
 30
0.0000
  0
SEQEND
  8
0
  0
POLYLINE
  8
20
 66
1
 10
0.0000
 20
0.0000
 30
0.0000
 40
0.4572
 41
0.4572
 70
0
  0
VERTEX
  8
20
 10
25.4221
 20
10.0038
 30
0.0000
 42
0.4142
  0
VERTEX
  8
20
 10
24.9983
 20
9.5800
 30
0.0000
  0
SEQEND
  8
0
  0
POLYLINE
  8
20
 66
1
 10
0.0000
 20
0.0000
 30
0.0000
 40
0.2286
 41
0.2286
 70
0
  0
VERTEX
  8
20
 10
25.4221
 20
9.8895
 30
0.0000
 42
1.0000
  0
VERTEX
  8
20
 10
25.4221
 20
10.1181
 30
0.0000
  0
SEQEND
  8
0
  0
POLYLINE
  8
20
 66
1
 10
0.0000
 20
0.0000
 30
0.0000
 40
0.2286
 41
0.2286
 70
0
  0
VERTEX
  8
20
 10
24.8840
 20
9.5800
 30
0.0000
 42
1.0000
  0
VERTEX
  8
20
 10
25.1126
 20
9.5800
 30
0.0000
  0
SEQEND
  8
0
  0
POLYLINE
  8
20
 66
1
 10
0.0000
 20
0.0000
 30
0.0000
 40
0.4572
 41
0.4572
 70
0
  0
VERTEX
  8
20
 10
25.4221
 20
10.0038
 30
0.0000
  0
VERTEX
  8
20
 10
26.1284
 20
10.0038
 30
0.0000
  0
SEQEND
  8
0
  0
POLYLINE
  8
20
 66
1
 10
0.0000
 20
0.0000
 30
0.0000
 40
0.2286
 41
0.2286
 70
0
  0
VERTEX
  8
20
 10
26.1284
 20
9.8895
 30
0.0000
 42
1.0000
  0
VERTEX
  8
20
 10
26.1284
 20
10.1181
 30
0.0000
  0
SEQEND
  8
0
  0
POLYLINE
  8
20
 66
1
 10
0.0000
 20
0.0000
 30
0.0000
 40
0.2286
 41
0.2286
 70
0
  0
VERTEX
  8
20
 10
25.4221
 20
10.1181
 30
0.0000
 42
1.0000
  0
VERTEX
  8
20
 10
25.4221
 20
9.8895
 30
0.0000
  0
SEQEND
  8
0
  0
POLYLINE
  8
20
 66
1
 10
0.0000
 20
0.0000
 30
0.0000
 40
0.4572
 41
0.4572
 70
0
  0
VERTEX
  8
20
 10
26.1284
 20
10.0038
 30
0.0000
  0
VERTEX
  8
20
 10
26.1284
 20
7.8848
 30
0.0000
  0
SEQEND
  8
0
  0
POLYLINE
  8
20
 66
1
 10
0.0000
 20
0.0000
 30
0.0000
 40
0.2286
 41
0.2286
 70
0
  0
VERTEX
  8
20
 10
26.0141
 20
7.8848
 30
0.0000
 42
1.0000
  0
VERTEX
  8
20
 10
26.2427
 20
7.8848
 30
0.0000
  0
SEQEND
  8
0
  0
POLYLINE
  8
20
 66
1
 10
0.0000
 20
0.0000
 30
0.0000
 40
0.2286
 41
0.2286
 70
0
  0
VERTEX
  8
20
 10
26.2427
 20
10.0038
 30
0.0000
 42
1.0000
  0
VERTEX
  8
20
 10
26.0141
 20
10.0038
 30
0.0000
  0
SEQEND
  8
0
  0
POLYLINE
  8
20
 66
1
 10
0.0000
 20
0.0000
 30
0.0000
 40
0.4572
 41
0.4572
 70
0
  0
VERTEX
  8
20
 10
25.7046
 20
7.4610
 30
0.0000
 42
0.4142
  0
VERTEX
  8
20
 10
26.1284
 20
7.8848
 30
0.0000
  0
SEQEND
  8
0
  0
POLYLINE
  8
20
 66
1
 10
0.0000
 20
0.0000
 30
0.0000
 40
0.2286
 41
0.2286
 70
0
  0
VERTEX
  8
20
 10
25.7046
 20
7.5753
 30
0.0000
 42
1.0000
  0
VERTEX
  8
20
 10
25.7046
 20
7.3467
 30
0.0000
  0
SEQEND
  8
0
  0
POLYLINE
  8
20
 66
1
 10
0.0000
 20
0.0000
 30
0.0000
 40
0.2286
 41
0.2286
 70
0
  0
VERTEX
  8
20
 10
26.2427
 20
7.8848
 30
0.0000
 42
1.0000
  0
VERTEX
  8
20
 10
26.0141
 20
7.8848
 30
0.0000
  0
SEQEND
  8
0
  0
POLYLINE
  8
20
 66
1
 10
0.0000
 20
0.0000
 30
0.0000
 40
0.4572
 41
0.4572
 70
0
  0
VERTEX
  8
20
 10
25.7046
 20
7.4610
 30
0.0000
  0
VERTEX
  8
20
 10
25.1396
 20
7.4610
 30
0.0000
  0
SEQEND
  8
0
  0
POLYLINE
  8
20
 66
1
 10
0.0000
 20
0.0000
 30
0.0000
 40
0.2286
 41
0.2286
 70
0
  0
VERTEX
  8
20
 10
25.1396
 20
7.5753
 30
0.0000
 42
1.0000
  0
VERTEX
  8
20
 10
25.1396
 20
7.3467
 30
0.0000
  0
SEQEND
  8
0
  0
POLYLINE
  8
20
 66
1
 10
0.0000
 20
0.0000
 30
0.0000
 40
0.2286
 41
0.2286
 70
0
  0
VERTEX
  8
20
 10
25.7046
 20
7.3467
 30
0.0000
 42
1.0000
  0
VERTEX
  8
20
 10
25.7046
 20
7.5753
 30
0.0000
  0
SEQEND
  8
0
  0
POLYLINE
  8
20
 66
1
 10
0.0000
 20
0.0000
 30
0.0000
 40
0.4572
 41
0.4572
 70
0
  0
VERTEX
  8
20
 10
27.0548
 20
7.4610
 30
0.0000
  0
VERTEX
  8
20
 10
27.3373
 20
7.4610
 30
0.0000
  0
SEQEND
  8
0
  0
POLYLINE
  8
20
 66
1
 10
0.0000
 20
0.0000
 30
0.0000
 40
0.2286
 41
0.2286
 70
0
  0
VERTEX
  8
20
 10
27.3373
 20
7.3467
 30
0.0000
 42
1.0000
  0
VERTEX
  8
20
 10
27.3373
 20
7.5753
 30
0.0000
  0
SEQEND
  8
0
  0
POLYLINE
  8
20
 66
1
 10
0.0000
 20
0.0000
 30
0.0000
 40
0.2286
 41
0.2286
 70
0
  0
VERTEX
  8
20
 10
27.0548
 20
7.5753
 30
0.0000
 42
1.0000
  0
VERTEX
  8
20
 10
27.0548
 20
7.3467
 30
0.0000
  0
SEQEND
  8
0
  0
POLYLINE
  8
20
 66
1
 10
0.0000
 20
0.0000
 30
0.0000
 40
0.4572
 41
0.4572
 70
0
  0
VERTEX
  8
20
 10
27.3373
 20
7.4610
 30
0.0000
  0
VERTEX
  8
20
 10
28.1849
 20
10.0038
 30
0.0000
  0
SEQEND
  8
0
  0
POLYLINE
  8
20
 66
1
 10
0.0000
 20
0.0000
 30
0.0000
 40
0.2286
 41
0.2286
 70
0
  0
VERTEX
  8
20
 10
28.2934
 20
9.9677
 30
0.0000
 42
1.0000
  0
VERTEX
  8
20
 10
28.0765
 20
10.0399
 30
0.0000
  0
SEQEND
  8
0
  0
POLYLINE
  8
20
 66
1
 10
0.0000
 20
0.0000
 30
0.0000
 40
0.2286
 41
0.2286
 70
0
  0
VERTEX
  8
20
 10
27.2289
 20
7.4971
 30
0.0000
 42
1.0000
  0
VERTEX
  8
20
 10
27.4458
 20
7.4249
 30
0.0000
  0
SEQEND
  8
0
  0
POLYLINE
  8
20
 66
1
 10
0.0000
 20
0.0000
 30
0.0000
 40
0.4572
 41
0.4572
 70
0
  0
VERTEX
  8
20
 10
27.0548
 20
10.0038
 30
0.0000
  0
VERTEX
  8
20
 10
27.6199
 20
8.3086
 30
0.0000
  0
SEQEND
  8
0
  0
POLYLINE
  8
20
 66
1
 10
0.0000
 20
0.0000
 30
0.0000
 40
0.2286
 41
0.2286
 70
0
  0
VERTEX
  8
20
 10
27.5114
 20
8.2725
 30
0.0000
 42
1.0000
  0
VERTEX
  8
20
 10
27.7283
 20
8.3447
 30
0.0000
  0
SEQEND
  8
0
  0
POLYLINE
  8
20
 66
1
 10
0.0000
 20
0.0000
 30
0.0000
 40
0.2286
 41
0.2286
 70
0
  0
VERTEX
  8
20
 10
27.1632
 20
10.0399
 30
0.0000
 42
1.0000
  0
VERTEX
  8
20
 10
26.9464
 20
9.9677
 30
0.0000
  0
SEQEND
  8
0
  0
POLYLINE
  8
20
 66
1
 10
0.0000
 20
0.0000
 30
0.0000
 40
0.4572
 41
0.4572
 70
0
  0
VERTEX
  8
20
 10
29.1348
 20
8.3086
 30
0.0000
  0
VERTEX
  8
20
 10
29.1348
 20
10.8514
 30
0.0000
  0
SEQEND
  8
0
  0
POLYLINE
  8
20
 66
1
 10
0.0000
 20
0.0000
 30
0.0000
 40
0.2286
 41
0.2286
 70
0
  0
VERTEX
  8
20
 10
29.2491
 20
10.8514
 30
0.0000
 42
1.0000
  0
VERTEX
  8
20
 10
29.0205
 20
10.8514
 30
0.0000
  0
SEQEND
  8
0
  0
POLYLINE
  8
20
 66
1
 10
0.0000
 20
0.0000
 30
0.0000
 40
0.2286
 41
0.2286
 70
0
  0
VERTEX
  8
20
 10
29.0205
 20
8.3086
 30
0.0000
 42
1.0000
  0
VERTEX
  8
20
 10
29.2491
 20
8.3086
 30
0.0000
  0
SEQEND
  8
0
  0
POLYLINE
  8
20
 66
1
 10
0.0000
 20
0.0000
 30
0.0000
 40
0.4572
 41
0.4572
 70
0
  0
VERTEX
  8
20
 10
29.1348
 20
10.8514
 30
0.0000
  0
VERTEX
  8
20
 10
29.9824
 20
9.4387
 30
0.0000
  0
SEQEND
  8
0
  0
POLYLINE
  8
20
 66
1
 10
0.0000
 20
0.0000
 30
0.0000
 40
0.2286
 41
0.2286
 70
0
  0
VERTEX
  8
20
 10
29.8844
 20
9.3799
 30
0.0000
 42
1.0000
  0
VERTEX
  8
20
 10
30.0804
 20
9.4975
 30
0.0000
  0
SEQEND
  8
0
  0
POLYLINE
  8
20
 66
1
 10
0.0000
 20
0.0000
 30
0.0000
 40
0.2286
 41
0.2286
 70
0
  0
VERTEX
  8
20
 10
29.2328
 20
10.9102
 30
0.0000
 42
1.0000
  0
VERTEX
  8
20
 10
29.0368
 20
10.7926
 30
0.0000
  0
SEQEND
  8
0
  0
POLYLINE
  8
20
 66
1
 10
0.0000
 20
0.0000
 30
0.0000
 40
0.4572
 41
0.4572
 70
0
  0
VERTEX
  8
20
 10
29.9824
 20
9.4387
 30
0.0000
  0
VERTEX
  8
20
 10
30.8300
 20
10.8514
 30
0.0000
  0
SEQEND
  8
0
  0
POLYLINE
  8
20
 66
1
 10
0.0000
 20
0.0000
 30
0.0000
 40
0.2286
 41
0.2286
 70
0
  0
VERTEX
  8
20
 10
30.9280
 20
10.7926
 30
0.0000
 42
1.0000
  0
VERTEX
  8
20
 10
30.7320
 20
10.9102
 30
0.0000
  0
SEQEND
  8
0
  0
POLYLINE
  8
20
 66
1
 10
0.0000
 20
0.0000
 30
0.0000
 40
0.2286
 41
0.2286
 70
0
  0
VERTEX
  8
20
 10
29.8844
 20
9.4975
 30
0.0000
 42
1.0000
  0
VERTEX
  8
20
 10
30.0804
 20
9.3799
 30
0.0000
  0
SEQEND
  8
0
  0
POLYLINE
  8
20
 66
1
 10
0.0000
 20
0.0000
 30
0.0000
 40
0.4572
 41
0.4572
 70
0
  0
VERTEX
  8
20
 10
30.8300
 20
10.8514
 30
0.0000
  0
VERTEX
  8
20
 10
30.8300
 20
8.3086
 30
0.0000
  0
SEQEND
  8
0
  0
POLYLINE
  8
20
 66
1
 10
0.0000
 20
0.0000
 30
0.0000
 40
0.2286
 41
0.2286
 70
0
  0
VERTEX
  8
20
 10
30.7157
 20
8.3086
 30
0.0000
 42
1.0000
  0
VERTEX
  8
20
 10
30.9443
 20
8.3086
 30
0.0000
  0
SEQEND
  8
0
  0
POLYLINE
  8
20
 66
1
 10
0.0000
 20
0.0000
 30
0.0000
 40
0.2286
 41
0.2286
 70
0
  0
VERTEX
  8
20
 10
30.9443
 20
10.8514
 30
0.0000
 42
1.0000
  0
VERTEX
  8
20
 10
30.7157
 20
10.8514
 30
0.0000
  0
SEQEND
  8
0
  0
POLYLINE
  8
20
 66
1
 10
0.0000
 20
0.0000
 30
0.0000
 40
0.4572
 41
0.4572
 70
0
  0
VERTEX
  8
20
 10
31.8586
 20
8.8737
 30
0.0000
  0
VERTEX
  8
20
 10
31.8586
 20
9.4387
 30
0.0000
  0
SEQEND
  8
0
  0
POLYLINE
  8
20
 66
1
 10
0.0000
 20
0.0000
 30
0.0000
 40
0.2286
 41
0.2286
 70
0
  0
VERTEX
  8
20
 10
31.9729
 20
9.4387
 30
0.0000
 42
1.0000
  0
VERTEX
  8
20
 10
31.7443
 20
9.4387
 30
0.0000
  0
SEQEND
  8
0
  0
POLYLINE
  8
20
 66
1
 10
0.0000
 20
0.0000
 30
0.0000
 40
0.2286
 41
0.2286
 70
0
  0
VERTEX
  8
20
 10
31.7443
 20
8.8737
 30
0.0000
 42
1.0000
  0
VERTEX
  8
20
 10
31.9729
 20
8.8737
 30
0.0000
  0
SEQEND
  8
0
  0
POLYLINE
  8
20
 66
1
 10
0.0000
 20
0.0000
 30
0.0000
 40
0.4572
 41
0.4572
 70
0
  0
VERTEX
  8
20
 10
32.9887
 20
9.4387
 30
0.0000
 42
1.0000
  0
VERTEX
  8
20
 10
31.8586
 20
9.4387
 30
0.0000
  0
SEQEND
  8
0
  0
POLYLINE
  8
20
 66
1
 10
0.0000
 20
0.0000
 30
0.0000
 40
0.2286
 41
0.2286
 70
0
  0
VERTEX
  8
20
 10
32.8744
 20
9.4387
 30
0.0000
 42
1.0000
  0
VERTEX
  8
20
 10
33.1030
 20
9.4387
 30
0.0000
  0
SEQEND
  8
0
  0
POLYLINE
  8
20
 66
1
 10
0.0000
 20
0.0000
 30
0.0000
 40
0.2286
 41
0.2286
 70
0
  0
VERTEX
  8
20
 10
31.7443
 20
9.4387
 30
0.0000
 42
1.0000
  0
VERTEX
  8
20
 10
31.9729
 20
9.4387
 30
0.0000
  0
SEQEND
  8
0
  0
POLYLINE
  8
20
 66
1
 10
0.0000
 20
0.0000
 30
0.0000
 40
0.4572
 41
0.4572
 70
0
  0
VERTEX
  8
20
 10
32.9887
 20
9.4387
 30
0.0000
  0
VERTEX
  8
20
 10
32.9887
 20
8.8737
 30
0.0000
  0
SEQEND
  8
0
  0
POLYLINE
  8
20
 66
1
 10
0.0000
 20
0.0000
 30
0.0000
 40
0.2286
 41
0.2286
 70
0
  0
VERTEX
  8
20
 10
32.8744
 20
8.8737
 30
0.0000
 42
1.0000
  0
VERTEX
  8
20
 10
33.1030
 20
8.8737
 30
0.0000
  0
SEQEND
  8
0
  0
POLYLINE
  8
20
 66
1
 10
0.0000
 20
0.0000
 30
0.0000
 40
0.2286
 41
0.2286
 70
0
  0
VERTEX
  8
20
 10
33.1030
 20
9.4387
 30
0.0000
 42
1.0000
  0
VERTEX
  8
20
 10
32.8744
 20
9.4387
 30
0.0000
  0
SEQEND
  8
0
  0
POLYLINE
  8
20
 66
1
 10
0.0000
 20
0.0000
 30
0.0000
 40
0.4572
 41
0.4572
 70
0
  0
VERTEX
  8
20
 10
31.8586
 20
8.8737
 30
0.0000
 42
1.0000
  0
VERTEX
  8
20
 10
32.9887
 20
8.8737
 30
0.0000
  0
SEQEND
  8
0
  0
POLYLINE
  8
20
 66
1
 10
0.0000
 20
0.0000
 30
0.0000
 40
0.2286
 41
0.2286
 70
0
  0
VERTEX
  8
20
 10
31.9729
 20
8.8737
 30
0.0000
 42
1.0000
  0
VERTEX
  8
20
 10
31.7443
 20
8.8737
 30
0.0000
  0
SEQEND
  8
0
  0
POLYLINE
  8
20
 66
1
 10
0.0000
 20
0.0000
 30
0.0000
 40
0.2286
 41
0.2286
 70
0
  0
VERTEX
  8
20
 10
33.1030
 20
8.8737
 30
0.0000
 42
1.0000
  0
VERTEX
  8
20
 10
32.8744
 20
8.8737
 30
0.0000
  0
SEQEND
  8
0
  0
POLYLINE
  8
20
 66
1
 10
0.0000
 20
0.0000
 30
0.0000
 40
0.4572
 41
0.4572
 70
0
  0
VERTEX
  8
20
 10
33.9848
 20
8.3086
 30
0.0000
  0
VERTEX
  8
20
 10
33.9848
 20
10.0038
 30
0.0000
  0
SEQEND
  8
0
  0
POLYLINE
  8
20
 66
1
 10
0.0000
 20
0.0000
 30
0.0000
 40
0.2286
 41
0.2286
 70
0
  0
VERTEX
  8
20
 10
34.0991
 20
10.0038
 30
0.0000
 42
1.0000
  0
VERTEX
  8
20
 10
33.8705
 20
10.0038
 30
0.0000
  0
SEQEND
  8
0
  0
POLYLINE
  8
20
 66
1
 10
0.0000
 20
0.0000
 30
0.0000
 40
0.2286
 41
0.2286
 70
0
  0
VERTEX
  8
20
 10
33.8705
 20
8.3086
 30
0.0000
 42
1.0000
  0
VERTEX
  8
20
 10
34.0991
 20
8.3086
 30
0.0000
  0
SEQEND
  8
0
  0
POLYLINE
  8
20
 66
1
 10
0.0000
 20
0.0000
 30
0.0000
 40
0.4572
 41
0.4572
 70
0
  0
VERTEX
  8
20
 10
33.9848
 20
10.0038
 30
0.0000
  0
VERTEX
  8
20
 10
34.6911
 20
10.0038
 30
0.0000
  0
SEQEND
  8
0
  0
POLYLINE
  8
20
 66
1
 10
0.0000
 20
0.0000
 30
0.0000
 40
0.2286
 41
0.2286
 70
0
  0
VERTEX
  8
20
 10
34.6911
 20
9.8895
 30
0.0000
 42
1.0000
  0
VERTEX
  8
20
 10
34.6911
 20
10.1181
 30
0.0000
  0
SEQEND
  8
0
  0
POLYLINE
  8
20
 66
1
 10
0.0000
 20
0.0000
 30
0.0000
 40
0.2286
 41
0.2286
 70
0
  0
VERTEX
  8
20
 10
33.9848
 20
10.1181
 30
0.0000
 42
1.0000
  0
VERTEX
  8
20
 10
33.9848
 20
9.8895
 30
0.0000
  0
SEQEND
  8
0
  0
POLYLINE
  8
20
 66
1
 10
0.0000
 20
0.0000
 30
0.0000
 40
0.4572
 41
0.4572
 70
0
  0
VERTEX
  8
20
 10
35.1149
 20
9.5800
 30
0.0000
 42
0.4142
  0
VERTEX
  8
20
 10
34.6911
 20
10.0038
 30
0.0000
  0
SEQEND
  8
0
  0
POLYLINE
  8
20
 66
1
 10
0.0000
 20
0.0000
 30
0.0000
 40
0.2286
 41
0.2286
 70
0
  0
VERTEX
  8
20
 10
35.0006
 20
9.5800
 30
0.0000
 42
1.0000
  0
VERTEX
  8
20
 10
35.2292
 20
9.5800
 30
0.0000
  0
SEQEND
  8
0
  0
POLYLINE
  8
20
 66
1
 10
0.0000
 20
0.0000
 30
0.0000
 40
0.2286
 41
0.2286
 70
0
  0
VERTEX
  8
20
 10
34.6911
 20
10.1181
 30
0.0000
 42
1.0000
  0
VERTEX
  8
20
 10
34.6911
 20
9.8895
 30
0.0000
  0
SEQEND
  8
0
  0
POLYLINE
  8
20
 66
1
 10
0.0000
 20
0.0000
 30
0.0000
 40
0.4572
 41
0.4572
 70
0
  0
VERTEX
  8
20
 10
35.1149
 20
9.5800
 30
0.0000
  0
VERTEX
  8
20
 10
35.1149
 20
8.3086
 30
0.0000
  0
SEQEND
  8
0
  0
POLYLINE
  8
20
 66
1
 10
0.0000
 20
0.0000
 30
0.0000
 40
0.2286
 41
0.2286
 70
0
  0
VERTEX
  8
20
 10
35.0006
 20
8.3086
 30
0.0000
 42
1.0000
  0
VERTEX
  8
20
 10
35.2292
 20
8.3086
 30
0.0000
  0
SEQEND
  8
0
  0
POLYLINE
  8
20
 66
1
 10
0.0000
 20
0.0000
 30
0.0000
 40
0.2286
 41
0.2286
 70
0
  0
VERTEX
  8
20
 10
35.2292
 20
9.5800
 30
0.0000
 42
1.0000
  0
VERTEX
  8
20
 10
35.0006
 20
9.5800
 30
0.0000
  0
SEQEND
  8
0
  0
POLYLINE
  8
20
 66
1
 10
0.0000
 20
0.0000
 30
0.0000
 40
0.4572
 41
0.4572
 70
0
  0
VERTEX
  8
20
 10
36.1249
 20
8.3086
 30
0.0000
  0
VERTEX
  8
20
 10
36.1249
 20
10.0038
 30
0.0000
  0
SEQEND
  8
0
  0
POLYLINE
  8
20
 66
1
 10
0.0000
 20
0.0000
 30
0.0000
 40
0.2286
 41
0.2286
 70
0
  0
VERTEX
  8
20
 10
36.2392
 20
10.0038
 30
0.0000
 42
1.0000
  0
VERTEX
  8
20
 10
36.0106
 20
10.0038
 30
0.0000
  0
SEQEND
  8
0
  0
POLYLINE
  8
20
 66
1
 10
0.0000
 20
0.0000
 30
0.0000
 40
0.2286
 41
0.2286
 70
0
  0
VERTEX
  8
20
 10
36.0106
 20
8.3086
 30
0.0000
 42
1.0000
  0
VERTEX
  8
20
 10
36.2392
 20
8.3086
 30
0.0000
  0
SEQEND
  8
0
  0
POLYLINE
  8
20
 66
1
 10
0.0000
 20
0.0000
 30
0.0000
 40
0.4572
 41
0.4572
 70
0
  0
VERTEX
  8
20
 10
36.0542
 20
10.7101
 30
0.0000
  0
VERTEX
  8
20
 10
36.0542
 20
10.8514
 30
0.0000
  0
SEQEND
  8
0
  0
POLYLINE
  8
20
 66
1
 10
0.0000
 20
0.0000
 30
0.0000
 40
0.2286
 41
0.2286
 70
0
  0
VERTEX
  8
20
 10
36.1685
 20
10.8514
 30
0.0000
 42
1.0000
  0
VERTEX
  8
20
 10
35.9399
 20
10.8514
 30
0.0000
  0
SEQEND
  8
0
  0
POLYLINE
  8
20
 66
1
 10
0.0000
 20
0.0000
 30
0.0000
 40
0.2286
 41
0.2286
 70
0
  0
VERTEX
  8
20
 10
35.9399
 20
10.7101
 30
0.0000
 42
1.0000
  0
VERTEX
  8
20
 10
36.1685
 20
10.7101
 30
0.0000
  0
SEQEND
  8
0
  0
POLYLINE
  8
20
 66
1
 10
0.0000
 20
0.0000
 30
0.0000
 40
0.4572
 41
0.4572
 70
0
  0
VERTEX
  8
20
 10
36.0542
 20
10.8514
 30
0.0000
  0
VERTEX
  8
20
 10
36.1955
 20
10.8514
 30
0.0000
  0
SEQEND
  8
0
  0
POLYLINE
  8
20
 66
1
 10
0.0000
 20
0.0000
 30
0.0000
 40
0.2286
 41
0.2286
 70
0
  0
VERTEX
  8
20
 10
36.1955
 20
10.7371
 30
0.0000
 42
1.0000
  0
VERTEX
  8
20
 10
36.1955
 20
10.9657
 30
0.0000
  0
SEQEND
  8
0
  0
POLYLINE
  8
20
 66
1
 10
0.0000
 20
0.0000
 30
0.0000
 40
0.2286
 41
0.2286
 70
0
  0
VERTEX
  8
20
 10
36.0542
 20
10.9657
 30
0.0000
 42
1.0000
  0
VERTEX
  8
20
 10
36.0542
 20
10.7371
 30
0.0000
  0
SEQEND
  8
0
  0
POLYLINE
  8
20
 66
1
 10
0.0000
 20
0.0000
 30
0.0000
 40
0.4572
 41
0.4572
 70
0
  0
VERTEX
  8
20
 10
36.1955
 20
10.8514
 30
0.0000
  0
VERTEX
  8
20
 10
36.1955
 20
10.7101
 30
0.0000
  0
SEQEND
  8
0
  0
POLYLINE
  8
20
 66
1
 10
0.0000
 20
0.0000
 30
0.0000
 40
0.2286
 41
0.2286
 70
0
  0
VERTEX
  8
20
 10
36.0812
 20
10.7101
 30
0.0000
 42
1.0000
  0
VERTEX
  8
20
 10
36.3098
 20
10.7101
 30
0.0000
  0
SEQEND
  8
0
  0
POLYLINE
  8
20
 66
1
 10
0.0000
 20
0.0000
 30
0.0000
 40
0.2286
 41
0.2286
 70
0
  0
VERTEX
  8
20
 10
36.3098
 20
10.8514
 30
0.0000
 42
1.0000
  0
VERTEX
  8
20
 10
36.0812
 20
10.8514
 30
0.0000
  0
SEQEND
  8
0
  0
POLYLINE
  8
20
 66
1
 10
0.0000
 20
0.0000
 30
0.0000
 40
0.4572
 41
0.4572
 70
0
  0
VERTEX
  8
20
 10
36.1955
 20
10.7101
 30
0.0000
  0
VERTEX
  8
20
 10
36.0542
 20
10.7101
 30
0.0000
  0
SEQEND
  8
0
  0
POLYLINE
  8
20
 66
1
 10
0.0000
 20
0.0000
 30
0.0000
 40
0.2286
 41
0.2286
 70
0
  0
VERTEX
  8
20
 10
36.0542
 20
10.8244
 30
0.0000
 42
1.0000
  0
VERTEX
  8
20
 10
36.0542
 20
10.5958
 30
0.0000
  0
SEQEND
  8
0
  0
POLYLINE
  8
20
 66
1
 10
0.0000
 20
0.0000
 30
0.0000
 40
0.2286
 41
0.2286
 70
0
  0
VERTEX
  8
20
 10
36.1955
 20
10.5958
 30
0.0000
 42
1.0000
  0
VERTEX
  8
20
 10
36.1955
 20
10.8244
 30
0.0000
  0
SEQEND
  8
0
  0
POLYLINE
  8
20
 66
1
 10
0.0000
 20
0.0000
 30
0.0000
 40
0.4572
 41
0.4572
 70
0
  0
VERTEX
  8
20
 10
36.8670
 20
10.0038
 30
0.0000
  0
VERTEX
  8
20
 10
37.7146
 20
10.0038
 30
0.0000
  0
SEQEND
  8
0
  0
POLYLINE
  8
20
 66
1
 10
0.0000
 20
0.0000
 30
0.0000
 40
0.2286
 41
0.2286
 70
0
  0
VERTEX
  8
20
 10
37.7146
 20
9.8895
 30
0.0000
 42
1.0000
  0
VERTEX
  8
20
 10
37.7146
 20
10.1181
 30
0.0000
  0
SEQEND
  8
0
  0
POLYLINE
  8
20
 66
1
 10
0.0000
 20
0.0000
 30
0.0000
 40
0.2286
 41
0.2286
 70
0
  0
VERTEX
  8
20
 10
36.8670
 20
10.1181
 30
0.0000
 42
1.0000
  0
VERTEX
  8
20
 10
36.8670
 20
9.8895
 30
0.0000
  0
SEQEND
  8
0
  0
POLYLINE
  8
20
 66
1
 10
0.0000
 20
0.0000
 30
0.0000
 40
0.4572
 41
0.4572
 70
0
  0
VERTEX
  8
20
 10
37.1496
 20
10.8514
 30
0.0000
  0
VERTEX
  8
20
 10
37.1496
 20
8.7324
 30
0.0000
  0
SEQEND
  8
0
  0
POLYLINE
  8
20
 66
1
 10
0.0000
 20
0.0000
 30
0.0000
 40
0.2286
 41
0.2286
 70
0
  0
VERTEX
  8
20
 10
37.0353
 20
8.7324
 30
0.0000
 42
1.0000
  0
VERTEX
  8
20
 10
37.2639
 20
8.7324
 30
0.0000
  0
SEQEND
  8
0
  0
POLYLINE
  8
20
 66
1
 10
0.0000
 20
0.0000
 30
0.0000
 40
0.2286
 41
0.2286
 70
0
  0
VERTEX
  8
20
 10
37.2639
 20
10.8514
 30
0.0000
 42
1.0000
  0
VERTEX
  8
20
 10
37.0353
 20
10.8514
 30
0.0000
  0
SEQEND
  8
0
  0
POLYLINE
  8
20
 66
1
 10
0.0000
 20
0.0000
 30
0.0000
 40
0.4572
 41
0.4572
 70
0
  0
VERTEX
  8
20
 10
37.1496
 20
8.7324
 30
0.0000
 42
0.4142
  0
VERTEX
  8
20
 10
37.5734
 20
8.3086
 30
0.0000
  0
SEQEND
  8
0
  0
POLYLINE
  8
20
 66
1
 10
0.0000
 20
0.0000
 30
0.0000
 40
0.2286
 41
0.2286
 70
0
  0
VERTEX
  8
20
 10
37.2639
 20
8.7324
 30
0.0000
 42
1.0000
  0
VERTEX
  8
20
 10
37.0353
 20
8.7324
 30
0.0000
  0
SEQEND
  8
0
  0
POLYLINE
  8
20
 66
1
 10
0.0000
 20
0.0000
 30
0.0000
 40
0.2286
 41
0.2286
 70
0
  0
VERTEX
  8
20
 10
37.5734
 20
8.1943
 30
0.0000
 42
1.0000
  0
VERTEX
  8
20
 10
37.5734
 20
8.4229
 30
0.0000
  0
SEQEND
  8
0
  0
POLYLINE
  8
20
 66
1
 10
0.0000
 20
0.0000
 30
0.0000
 40
0.4572
 41
0.4572
 70
0
  0
VERTEX
  8
20
 10
37.5734
 20
8.3086
 30
0.0000
  0
VERTEX
  8
20
 10
37.7146
 20
8.3086
 30
0.0000
  0
SEQEND
  8
0
  0
POLYLINE
  8
20
 66
1
 10
0.0000
 20
0.0000
 30
0.0000
 40
0.2286
 41
0.2286
 70
0
  0
VERTEX
  8
20
 10
37.7146
 20
8.1943
 30
0.0000
 42
1.0000
  0
VERTEX
  8
20
 10
37.7146
 20
8.4229
 30
0.0000
  0
SEQEND
  8
0
  0
POLYLINE
  8
20
 66
1
 10
0.0000
 20
0.0000
 30
0.0000
 40
0.2286
 41
0.2286
 70
0
  0
VERTEX
  8
20
 10
37.5734
 20
8.4229
 30
0.0000
 42
1.0000
  0
VERTEX
  8
20
 10
37.5734
 20
8.1943
 30
0.0000
  0
SEQEND
  8
0
  0
POLYLINE
  8
20
 66
1
 10
0.0000
 20
0.0000
 30
0.0000
 40
0.4572
 41
0.4572
 70
0
  0
VERTEX
  8
20
 10
38.5523
 20
8.8737
 30
0.0000
  0
VERTEX
  8
20
 10
38.5523
 20
9.4387
 30
0.0000
  0
SEQEND
  8
0
  0
POLYLINE
  8
20
 66
1
 10
0.0000
 20
0.0000
 30
0.0000
 40
0.2286
 41
0.2286
 70
0
  0
VERTEX
  8
20
 10
38.6666
 20
9.4387
 30
0.0000
 42
1.0000
  0
VERTEX
  8
20
 10
38.4380
 20
9.4387
 30
0.0000
  0
SEQEND
  8
0
  0
POLYLINE
  8
20
 66
1
 10
0.0000
 20
0.0000
 30
0.0000
 40
0.2286
 41
0.2286
 70
0
  0
VERTEX
  8
20
 10
38.4380
 20
8.8737
 30
0.0000
 42
1.0000
  0
VERTEX
  8
20
 10
38.6666
 20
8.8737
 30
0.0000
  0
SEQEND
  8
0
  0
POLYLINE
  8
20
 66
1
 10
0.0000
 20
0.0000
 30
0.0000
 40
0.4572
 41
0.4572
 70
0
  0
VERTEX
  8
20
 10
39.6824
 20
9.4387
 30
0.0000
 42
1.0000
  0
VERTEX
  8
20
 10
38.5523
 20
9.4387
 30
0.0000
  0
SEQEND
  8
0
  0
POLYLINE
  8
20
 66
1
 10
0.0000
 20
0.0000
 30
0.0000
 40
0.2286
 41
0.2286
 70
0
  0
VERTEX
  8
20
 10
39.5681
 20
9.4387
 30
0.0000
 42
1.0000
  0
VERTEX
  8
20
 10
39.7967
 20
9.4387
 30
0.0000
  0
SEQEND
  8
0
  0
POLYLINE
  8
20
 66
1
 10
0.0000
 20
0.0000
 30
0.0000
 40
0.2286
 41
0.2286
 70
0
  0
VERTEX
  8
20
 10
38.4380
 20
9.4387
 30
0.0000
 42
1.0000
  0
VERTEX
  8
20
 10
38.6666
 20
9.4387
 30
0.0000
  0
SEQEND
  8
0
  0
POLYLINE
  8
20
 66
1
 10
0.0000
 20
0.0000
 30
0.0000
 40
0.4572
 41
0.4572
 70
0
  0
VERTEX
  8
20
 10
39.6824
 20
9.4387
 30
0.0000
  0
VERTEX
  8
20
 10
39.6824
 20
8.8737
 30
0.0000
  0
SEQEND
  8
0
  0
POLYLINE
  8
20
 66
1
 10
0.0000
 20
0.0000
 30
0.0000
 40
0.2286
 41
0.2286
 70
0
  0
VERTEX
  8
20
 10
39.5681
 20
8.8737
 30
0.0000
 42
1.0000
  0
VERTEX
  8
20
 10
39.7967
 20
8.8737
 30
0.0000
  0
SEQEND
  8
0
  0
POLYLINE
  8
20
 66
1
 10
0.0000
 20
0.0000
 30
0.0000
 40
0.2286
 41
0.2286
 70
0
  0
VERTEX
  8
20
 10
39.7967
 20
9.4387
 30
0.0000
 42
1.0000
  0
VERTEX
  8
20
 10
39.5681
 20
9.4387
 30
0.0000
  0
SEQEND
  8
0
  0
POLYLINE
  8
20
 66
1
 10
0.0000
 20
0.0000
 30
0.0000
 40
0.4572
 41
0.4572
 70
0
  0
VERTEX
  8
20
 10
38.5523
 20
8.8737
 30
0.0000
 42
1.0000
  0
VERTEX
  8
20
 10
39.6824
 20
8.8737
 30
0.0000
  0
SEQEND
  8
0
  0
POLYLINE
  8
20
 66
1
 10
0.0000
 20
0.0000
 30
0.0000
 40
0.2286
 41
0.2286
 70
0
  0
VERTEX
  8
20
 10
38.6666
 20
8.8737
 30
0.0000
 42
1.0000
  0
VERTEX
  8
20
 10
38.4380
 20
8.8737
 30
0.0000
  0
SEQEND
  8
0
  0
POLYLINE
  8
20
 66
1
 10
0.0000
 20
0.0000
 30
0.0000
 40
0.2286
 41
0.2286
 70
0
  0
VERTEX
  8
20
 10
39.7967
 20
8.8737
 30
0.0000
 42
1.0000
  0
VERTEX
  8
20
 10
39.5681
 20
8.8737
 30
0.0000
  0
SEQEND
  8
0
  0
POLYLINE
  8
20
 66
1
 10
0.0000
 20
0.0000
 30
0.0000
 40
0.4572
 41
0.4572
 70
0
  0
VERTEX
  8
20
 10
40.6904
 20
8.3086
 30
0.0000
  0
VERTEX
  8
20
 10
40.6904
 20
10.0038
 30
0.0000
  0
SEQEND
  8
0
  0
POLYLINE
  8
20
 66
1
 10
0.0000
 20
0.0000
 30
0.0000
 40
0.2286
 41
0.2286
 70
0
  0
VERTEX
  8
20
 10
40.8047
 20
10.0038
 30
0.0000
 42
1.0000
  0
VERTEX
  8
20
 10
40.5761
 20
10.0038
 30
0.0000
  0
SEQEND
  8
0
  0
POLYLINE
  8
20
 66
1
 10
0.0000
 20
0.0000
 30
0.0000
 40
0.2286
 41
0.2286
 70
0
  0
VERTEX
  8
20
 10
40.5761
 20
8.3086
 30
0.0000
 42
1.0000
  0
VERTEX
  8
20
 10
40.8047
 20
8.3086
 30
0.0000
  0
SEQEND
  8
0
  0
POLYLINE
  8
20
 66
1
 10
0.0000
 20
0.0000
 30
0.0000
 40
0.4572
 41
0.4572
 70
0
  0
VERTEX
  8
20
 10
40.6904
 20
10.0038
 30
0.0000
  0
VERTEX
  8
20
 10
41.5380
 20
10.0038
 30
0.0000
  0
SEQEND
  8
0
  0
POLYLINE
  8
20
 66
1
 10
0.0000
 20
0.0000
 30
0.0000
 40
0.2286
 41
0.2286
 70
0
  0
VERTEX
  8
20
 10
41.5380
 20
9.8895
 30
0.0000
 42
1.0000
  0
VERTEX
  8
20
 10
41.5380
 20
10.1181
 30
0.0000
  0
SEQEND
  8
0
  0
POLYLINE
  8
20
 66
1
 10
0.0000
 20
0.0000
 30
0.0000
 40
0.2286
 41
0.2286
 70
0
  0
VERTEX
  8
20
 10
40.6904
 20
10.1181
 30
0.0000
 42
1.0000
  0
VERTEX
  8
20
 10
40.6904
 20
9.8895
 30
0.0000
  0
SEQEND
  8
0
  0
POLYLINE
  8
20
 66
1
 10
0.0000
 20
0.0000
 30
0.0000
 40
0.4572
 41
0.4572
 70
0
  0
VERTEX
  8
20
 10
41.5380
 20
10.0038
 30
0.0000
  0
VERTEX
  8
20
 10
41.5380
 20
9.7213
 30
0.0000
  0
SEQEND
  8
0
  0
POLYLINE
  8
20
 66
1
 10
0.0000
 20
0.0000
 30
0.0000
 40
0.2286
 41
0.2286
 70
0
  0
VERTEX
  8
20
 10
41.4237
 20
9.7213
 30
0.0000
 42
1.0000
  0
VERTEX
  8
20
 10
41.6523
 20
9.7213
 30
0.0000
  0
SEQEND
  8
0
  0
POLYLINE
  8
20
 66
1
 10
0.0000
 20
0.0000
 30
0.0000
 40
0.2286
 41
0.2286
 70
0
  0
VERTEX
  8
20
 10
41.6523
 20
10.0038
 30
0.0000
 42
1.0000
  0
VERTEX
  8
20
 10
41.4237
 20
10.0038
 30
0.0000
  0
SEQEND
  8
0
  0
POLYLINE
  8
20
 66
1
 10
0.0000
 20
0.0000
 30
0.0000
 40
0.4572
 41
0.4572
 70
0
  0
VERTEX
  8
20
 10
42.1967
 20
8.3086
 30
0.0000
  0
VERTEX
  8
20
 10
42.1967
 20
8.4499
 30
0.0000
  0
SEQEND
  8
0
  0
POLYLINE
  8
20
 66
1
 10
0.0000
 20
0.0000
 30
0.0000
 40
0.2286
 41
0.2286
 70
0
  0
VERTEX
  8
20
 10
42.3110
 20
8.4499
 30
0.0000
 42
1.0000
  0
VERTEX
  8
20
 10
42.0824
 20
8.4499
 30
0.0000
  0
SEQEND
  8
0
  0
POLYLINE
  8
20
 66
1
 10
0.0000
 20
0.0000
 30
0.0000
 40
0.2286
 41
0.2286
 70
0
  0
VERTEX
  8
20
 10
42.0824
 20
8.3086
 30
0.0000
 42
1.0000
  0
VERTEX
  8
20
 10
42.3110
 20
8.3086
 30
0.0000
  0
SEQEND
  8
0
  0
POLYLINE
  8
20
 66
1
 10
0.0000
 20
0.0000
 30
0.0000
 40
0.4572
 41
0.4572
 70
0
  0
VERTEX
  8
20
 10
42.1967
 20
8.4499
 30
0.0000
  0
VERTEX
  8
20
 10
42.3380
 20
8.4499
 30
0.0000
  0
SEQEND
  8
0
  0
POLYLINE
  8
20
 66
1
 10
0.0000
 20
0.0000
 30
0.0000
 40
0.2286
 41
0.2286
 70
0
  0
VERTEX
  8
20
 10
42.3380
 20
8.3356
 30
0.0000
 42
1.0000
  0
VERTEX
  8
20
 10
42.3380
 20
8.5642
 30
0.0000
  0
SEQEND
  8
0
  0
POLYLINE
  8
20
 66
1
 10
0.0000
 20
0.0000
 30
0.0000
 40
0.2286
 41
0.2286
 70
0
  0
VERTEX
  8
20
 10
42.1967
 20
8.5642
 30
0.0000
 42
1.0000
  0
VERTEX
  8
20
 10
42.1967
 20
8.3356
 30
0.0000
  0
SEQEND
  8
0
  0
POLYLINE
  8
20
 66
1
 10
0.0000
 20
0.0000
 30
0.0000
 40
0.4572
 41
0.4572
 70
0
  0
VERTEX
  8
20
 10
42.3380
 20
8.4499
 30
0.0000
  0
VERTEX
  8
20
 10
42.3380
 20
8.3086
 30
0.0000
  0
SEQEND
  8
0
  0
POLYLINE
  8
20
 66
1
 10
0.0000
 20
0.0000
 30
0.0000
 40
0.2286
 41
0.2286
 70
0
  0
VERTEX
  8
20
 10
42.2237
 20
8.3086
 30
0.0000
 42
1.0000
  0
VERTEX
  8
20
 10
42.4523
 20
8.3086
 30
0.0000
  0
SEQEND
  8
0
  0
POLYLINE
  8
20
 66
1
 10
0.0000
 20
0.0000
 30
0.0000
 40
0.2286
 41
0.2286
 70
0
  0
VERTEX
  8
20
 10
42.4523
 20
8.4499
 30
0.0000
 42
1.0000
  0
VERTEX
  8
20
 10
42.2237
 20
8.4499
 30
0.0000
  0
SEQEND
  8
0
  0
POLYLINE
  8
20
 66
1
 10
0.0000
 20
0.0000
 30
0.0000
 40
0.4572
 41
0.4572
 70
0
  0
VERTEX
  8
20
 10
42.3380
 20
8.3086
 30
0.0000
  0
VERTEX
  8
20
 10
42.1967
 20
8.3086
 30
0.0000
  0
SEQEND
  8
0
  0
POLYLINE
  8
20
 66
1
 10
0.0000
 20
0.0000
 30
0.0000
 40
0.2286
 41
0.2286
 70
0
  0
VERTEX
  8
20
 10
42.1967
 20
8.4229
 30
0.0000
 42
1.0000
  0
VERTEX
  8
20
 10
42.1967
 20
8.1943
 30
0.0000
  0
SEQEND
  8
0
  0
POLYLINE
  8
20
 66
1
 10
0.0000
 20
0.0000
 30
0.0000
 40
0.2286
 41
0.2286
 70
0
  0
VERTEX
  8
20
 10
42.3380
 20
8.1943
 30
0.0000
 42
1.0000
  0
VERTEX
  8
20
 10
42.3380
 20
8.4229
 30
0.0000
  0
SEQEND
  8
0
  0
POLYLINE
  8
20
 66
1
 10
0.0000
 20
0.0000
 30
0.0000
 40
0.4572
 41
0.4572
 70
0
  0
VERTEX
  8
20
 10
43.1985
 20
8.8737
 30
0.0000
  0
VERTEX
  8
20
 10
43.1985
 20
9.4387
 30
0.0000
  0
SEQEND
  8
0
  0
POLYLINE
  8
20
 66
1
 10
0.0000
 20
0.0000
 30
0.0000
 40
0.2286
 41
0.2286
 70
0
  0
VERTEX
  8
20
 10
43.3128
 20
9.4387
 30
0.0000
 42
1.0000
  0
VERTEX
  8
20
 10
43.0842
 20
9.4387
 30
0.0000
  0
SEQEND
  8
0
  0
POLYLINE
  8
20
 66
1
 10
0.0000
 20
0.0000
 30
0.0000
 40
0.2286
 41
0.2286
 70
0
  0
VERTEX
  8
20
 10
43.0842
 20
8.8737
 30
0.0000
 42
1.0000
  0
VERTEX
  8
20
 10
43.3128
 20
8.8737
 30
0.0000
  0
SEQEND
  8
0
  0
POLYLINE
  8
20
 66
1
 10
0.0000
 20
0.0000
 30
0.0000
 40
0.4572
 41
0.4572
 70
0
  0
VERTEX
  8
20
 10
44.3286
 20
9.4387
 30
0.0000
 42
1.0000
  0
VERTEX
  8
20
 10
43.1985
 20
9.4387
 30
0.0000
  0
SEQEND
  8
0
  0
POLYLINE
  8
20
 66
1
 10
0.0000
 20
0.0000
 30
0.0000
 40
0.2286
 41
0.2286
 70
0
  0
VERTEX
  8
20
 10
44.2143
 20
9.4387
 30
0.0000
 42
1.0000
  0
VERTEX
  8
20
 10
44.4429
 20
9.4387
 30
0.0000
  0
SEQEND
  8
0
  0
POLYLINE
  8
20
 66
1
 10
0.0000
 20
0.0000
 30
0.0000
 40
0.2286
 41
0.2286
 70
0
  0
VERTEX
  8
20
 10
43.0842
 20
9.4387
 30
0.0000
 42
1.0000
  0
VERTEX
  8
20
 10
43.3128
 20
9.4387
 30
0.0000
  0
SEQEND
  8
0
  0
POLYLINE
  8
20
 66
1
 10
0.0000
 20
0.0000
 30
0.0000
 40
0.4572
 41
0.4572
 70
0
  0
VERTEX
  8
20
 10
44.3286
 20
9.4387
 30
0.0000
  0
VERTEX
  8
20
 10
44.3286
 20
8.8737
 30
0.0000
  0
SEQEND
  8
0
  0
POLYLINE
  8
20
 66
1
 10
0.0000
 20
0.0000
 30
0.0000
 40
0.2286
 41
0.2286
 70
0
  0
VERTEX
  8
20
 10
44.2143
 20
8.8737
 30
0.0000
 42
1.0000
  0
VERTEX
  8
20
 10
44.4429
 20
8.8737
 30
0.0000
  0
SEQEND
  8
0
  0
POLYLINE
  8
20
 66
1
 10
0.0000
 20
0.0000
 30
0.0000
 40
0.2286
 41
0.2286
 70
0
  0
VERTEX
  8
20
 10
44.4429
 20
9.4387
 30
0.0000
 42
1.0000
  0
VERTEX
  8
20
 10
44.2143
 20
9.4387
 30
0.0000
  0
SEQEND
  8
0
  0
POLYLINE
  8
20
 66
1
 10
0.0000
 20
0.0000
 30
0.0000
 40
0.4572
 41
0.4572
 70
0
  0
VERTEX
  8
20
 10
43.1985
 20
8.8737
 30
0.0000
 42
1.0000
  0
VERTEX
  8
20
 10
44.3286
 20
8.8737
 30
0.0000
  0
SEQEND
  8
0
  0
POLYLINE
  8
20
 66
1
 10
0.0000
 20
0.0000
 30
0.0000
 40
0.2286
 41
0.2286
 70
0
  0
VERTEX
  8
20
 10
43.3128
 20
8.8737
 30
0.0000
 42
1.0000
  0
VERTEX
  8
20
 10
43.0842
 20
8.8737
 30
0.0000
  0
SEQEND
  8
0
  0
POLYLINE
  8
20
 66
1
 10
0.0000
 20
0.0000
 30
0.0000
 40
0.2286
 41
0.2286
 70
0
  0
VERTEX
  8
20
 10
44.4429
 20
8.8737
 30
0.0000
 42
1.0000
  0
VERTEX
  8
20
 10
44.2143
 20
8.8737
 30
0.0000
  0
SEQEND
  8
0
  0
POLYLINE
  8
20
 66
1
 10
0.0000
 20
0.0000
 30
0.0000
 40
0.4572
 41
0.4572
 70
0
  0
VERTEX
  8
20
 10
45.3367
 20
8.3086
 30
0.0000
  0
VERTEX
  8
20
 10
45.3367
 20
10.0038
 30
0.0000
  0
SEQEND
  8
0
  0
POLYLINE
  8
20
 66
1
 10
0.0000
 20
0.0000
 30
0.0000
 40
0.2286
 41
0.2286
 70
0
  0
VERTEX
  8
20
 10
45.4510
 20
10.0038
 30
0.0000
 42
1.0000
  0
VERTEX
  8
20
 10
45.2224
 20
10.0038
 30
0.0000
  0
SEQEND
  8
0
  0
POLYLINE
  8
20
 66
1
 10
0.0000
 20
0.0000
 30
0.0000
 40
0.2286
 41
0.2286
 70
0
  0
VERTEX
  8
20
 10
45.2224
 20
8.3086
 30
0.0000
 42
1.0000
  0
VERTEX
  8
20
 10
45.4510
 20
8.3086
 30
0.0000
  0
SEQEND
  8
0
  0
POLYLINE
  8
20
 66
1
 10
0.0000
 20
0.0000
 30
0.0000
 40
0.4572
 41
0.4572
 70
0
  0
VERTEX
  8
20
 10
45.3367
 20
10.0038
 30
0.0000
  0
VERTEX
  8
20
 10
46.1843
 20
10.0038
 30
0.0000
  0
SEQEND
  8
0
  0
POLYLINE
  8
20
 66
1
 10
0.0000
 20
0.0000
 30
0.0000
 40
0.2286
 41
0.2286
 70
0
  0
VERTEX
  8
20
 10
46.1843
 20
9.8895
 30
0.0000
 42
1.0000
  0
VERTEX
  8
20
 10
46.1843
 20
10.1181
 30
0.0000
  0
SEQEND
  8
0
  0
POLYLINE
  8
20
 66
1
 10
0.0000
 20
0.0000
 30
0.0000
 40
0.2286
 41
0.2286
 70
0
  0
VERTEX
  8
20
 10
45.3367
 20
10.1181
 30
0.0000
 42
1.0000
  0
VERTEX
  8
20
 10
45.3367
 20
9.8895
 30
0.0000
  0
SEQEND
  8
0
  0
POLYLINE
  8
20
 66
1
 10
0.0000
 20
0.0000
 30
0.0000
 40
0.4572
 41
0.4572
 70
0
  0
VERTEX
  8
20
 10
46.1843
 20
10.0038
 30
0.0000
  0
VERTEX
  8
20
 10
46.1843
 20
9.7213
 30
0.0000
  0
SEQEND
  8
0
  0
POLYLINE
  8
20
 66
1
 10
0.0000
 20
0.0000
 30
0.0000
 40
0.2286
 41
0.2286
 70
0
  0
VERTEX
  8
20
 10
46.0700
 20
9.7213
 30
0.0000
 42
1.0000
  0
VERTEX
  8
20
 10
46.2986
 20
9.7213
 30
0.0000
  0
SEQEND
  8
0
  0
POLYLINE
  8
20
 66
1
 10
0.0000
 20
0.0000
 30
0.0000
 40
0.2286
 41
0.2286
 70
0
  0
VERTEX
  8
20
 10
46.2986
 20
10.0038
 30
0.0000
 42
1.0000
  0
VERTEX
  8
20
 10
46.0700
 20
10.0038
 30
0.0000
  0
SEQEND
  8
0
  0
POLYLINE
  8
20
 66
1
 10
0.0000
 20
0.0000
 30
0.0000
 40
0.4572
 41
0.4572
 70
0
  0
VERTEX
  8
20
 10
48.0208
 20
8.3086
 30
0.0000
  0
VERTEX
  8
20
 10
47.3145
 20
8.3086
 30
0.0000
  0
SEQEND
  8
0
  0
POLYLINE
  8
20
 66
1
 10
0.0000
 20
0.0000
 30
0.0000
 40
0.2286
 41
0.2286
 70
0
  0
VERTEX
  8
20
 10
47.3145
 20
8.4229
 30
0.0000
 42
1.0000
  0
VERTEX
  8
20
 10
47.3145
 20
8.1943
 30
0.0000
  0
SEQEND
  8
0
  0
POLYLINE
  8
20
 66
1
 10
0.0000
 20
0.0000
 30
0.0000
 40
0.2286
 41
0.2286
 70
0
  0
VERTEX
  8
20
 10
48.0208
 20
8.1943
 30
0.0000
 42
1.0000
  0
VERTEX
  8
20
 10
48.0208
 20
8.4229
 30
0.0000
  0
SEQEND
  8
0
  0
POLYLINE
  8
20
 66
1
 10
0.0000
 20
0.0000
 30
0.0000
 40
0.4572
 41
0.4572
 70
0
  0
VERTEX
  8
20
 10
46.8907
 20
8.7324
 30
0.0000
 42
0.4142
  0
VERTEX
  8
20
 10
47.3145
 20
8.3086
 30
0.0000
  0
SEQEND
  8
0
  0
POLYLINE
  8
20
 66
1
 10
0.0000
 20
0.0000
 30
0.0000
 40
0.2286
 41
0.2286
 70
0
  0
VERTEX
  8
20
 10
47.0050
 20
8.7324
 30
0.0000
 42
1.0000
  0
VERTEX
  8
20
 10
46.7764
 20
8.7324
 30
0.0000
  0
SEQEND
  8
0
  0
POLYLINE
  8
20
 66
1
 10
0.0000
 20
0.0000
 30
0.0000
 40
0.2286
 41
0.2286
 70
0
  0
VERTEX
  8
20
 10
47.3145
 20
8.1943
 30
0.0000
 42
1.0000
  0
VERTEX
  8
20
 10
47.3145
 20
8.4229
 30
0.0000
  0
SEQEND
  8
0
  0
POLYLINE
  8
20
 66
1
 10
0.0000
 20
0.0000
 30
0.0000
 40
0.4572
 41
0.4572
 70
0
  0
VERTEX
  8
20
 10
46.8907
 20
8.7324
 30
0.0000
  0
VERTEX
  8
20
 10
46.8907
 20
9.5800
 30
0.0000
  0
SEQEND
  8
0
  0
POLYLINE
  8
20
 66
1
 10
0.0000
 20
0.0000
 30
0.0000
 40
0.2286
 41
0.2286
 70
0
  0
VERTEX
  8
20
 10
47.0050
 20
9.5800
 30
0.0000
 42
1.0000
  0
VERTEX
  8
20
 10
46.7764
 20
9.5800
 30
0.0000
  0
SEQEND
  8
0
  0
POLYLINE
  8
20
 66
1
 10
0.0000
 20
0.0000
 30
0.0000
 40
0.2286
 41
0.2286
 70
0
  0
VERTEX
  8
20
 10
46.7764
 20
8.7324
 30
0.0000
 42
1.0000
  0
VERTEX
  8
20
 10
47.0050
 20
8.7324
 30
0.0000
  0
SEQEND
  8
0
  0
POLYLINE
  8
20
 66
1
 10
0.0000
 20
0.0000
 30
0.0000
 40
0.4572
 41
0.4572
 70
0
  0
VERTEX
  8
20
 10
47.3145
 20
10.0038
 30
0.0000
 42
0.4142
  0
VERTEX
  8
20
 10
46.8907
 20
9.5800
 30
0.0000
  0
SEQEND
  8
0
  0
POLYLINE
  8
20
 66
1
 10
0.0000
 20
0.0000
 30
0.0000
 40
0.2286
 41
0.2286
 70
0
  0
VERTEX
  8
20
 10
47.3145
 20
9.8895
 30
0.0000
 42
1.0000
  0
VERTEX
  8
20
 10
47.3145
 20
10.1181
 30
0.0000
  0
SEQEND
  8
0
  0
POLYLINE
  8
20
 66
1
 10
0.0000
 20
0.0000
 30
0.0000
 40
0.2286
 41
0.2286
 70
0
  0
VERTEX
  8
20
 10
46.7764
 20
9.5800
 30
0.0000
 42
1.0000
  0
VERTEX
  8
20
 10
47.0050
 20
9.5800
 30
0.0000
  0
SEQEND
  8
0
  0
POLYLINE
  8
20
 66
1
 10
0.0000
 20
0.0000
 30
0.0000
 40
0.4572
 41
0.4572
 70
0
  0
VERTEX
  8
20
 10
47.3145
 20
10.0038
 30
0.0000
  0
VERTEX
  8
20
 10
48.0208
 20
10.0038
 30
0.0000
  0
SEQEND
  8
0
  0
POLYLINE
  8
20
 66
1
 10
0.0000
 20
0.0000
 30
0.0000
 40
0.2286
 41
0.2286
 70
0
  0
VERTEX
  8
20
 10
48.0208
 20
9.8895
 30
0.0000
 42
1.0000
  0
VERTEX
  8
20
 10
48.0208
 20
10.1181
 30
0.0000
  0
SEQEND
  8
0
  0
POLYLINE
  8
20
 66
1
 10
0.0000
 20
0.0000
 30
0.0000
 40
0.2286
 41
0.2286
 70
0
  0
VERTEX
  8
20
 10
47.3145
 20
10.1181
 30
0.0000
 42
1.0000
  0
VERTEX
  8
20
 10
47.3145
 20
9.8895
 30
0.0000
  0
SEQEND
  8
0
  0
POLYLINE
  8
20
 66
1
 10
0.0000
 20
0.0000
 30
0.0000
 40
0.4572
 41
0.4572
 70
0
  0
VERTEX
  8
20
 10
48.0208
 20
10.0038
 30
0.0000
  0
VERTEX
  8
20
 10
48.0208
 20
7.8848
 30
0.0000
  0
SEQEND
  8
0
  0
POLYLINE
  8
20
 66
1
 10
0.0000
 20
0.0000
 30
0.0000
 40
0.2286
 41
0.2286
 70
0
  0
VERTEX
  8
20
 10
47.9065
 20
7.8848
 30
0.0000
 42
1.0000
  0
VERTEX
  8
20
 10
48.1351
 20
7.8848
 30
0.0000
  0
SEQEND
  8
0
  0
POLYLINE
  8
20
 66
1
 10
0.0000
 20
0.0000
 30
0.0000
 40
0.2286
 41
0.2286
 70
0
  0
VERTEX
  8
20
 10
48.1351
 20
10.0038
 30
0.0000
 42
1.0000
  0
VERTEX
  8
20
 10
47.9065
 20
10.0038
 30
0.0000
  0
SEQEND
  8
0
  0
POLYLINE
  8
20
 66
1
 10
0.0000
 20
0.0000
 30
0.0000
 40
0.4572
 41
0.4572
 70
0
  0
VERTEX
  8
20
 10
47.5970
 20
7.4610
 30
0.0000
 42
0.4142
  0
VERTEX
  8
20
 10
48.0208
 20
7.8848
 30
0.0000
  0
SEQEND
  8
0
  0
POLYLINE
  8
20
 66
1
 10
0.0000
 20
0.0000
 30
0.0000
 40
0.2286
 41
0.2286
 70
0
  0
VERTEX
  8
20
 10
47.5970
 20
7.5753
 30
0.0000
 42
1.0000
  0
VERTEX
  8
20
 10
47.5970
 20
7.3467
 30
0.0000
  0
SEQEND
  8
0
  0
POLYLINE
  8
20
 66
1
 10
0.0000
 20
0.0000
 30
0.0000
 40
0.2286
 41
0.2286
 70
0
  0
VERTEX
  8
20
 10
48.1351
 20
7.8848
 30
0.0000
 42
1.0000
  0
VERTEX
  8
20
 10
47.9065
 20
7.8848
 30
0.0000
  0
SEQEND
  8
0
  0
POLYLINE
  8
20
 66
1
 10
0.0000
 20
0.0000
 30
0.0000
 40
0.4572
 41
0.4572
 70
0
  0
VERTEX
  8
20
 10
47.5970
 20
7.4610
 30
0.0000
  0
VERTEX
  8
20
 10
47.0320
 20
7.4610
 30
0.0000
  0
SEQEND
  8
0
  0
POLYLINE
  8
20
 66
1
 10
0.0000
 20
0.0000
 30
0.0000
 40
0.2286
 41
0.2286
 70
0
  0
VERTEX
  8
20
 10
47.0320
 20
7.5753
 30
0.0000
 42
1.0000
  0
VERTEX
  8
20
 10
47.0320
 20
7.3467
 30
0.0000
  0
SEQEND
  8
0
  0
POLYLINE
  8
20
 66
1
 10
0.0000
 20
0.0000
 30
0.0000
 40
0.2286
 41
0.2286
 70
0
  0
VERTEX
  8
20
 10
47.5970
 20
7.3467
 30
0.0000
 42
1.0000
  0
VERTEX
  8
20
 10
47.5970
 20
7.5753
 30
0.0000
  0
SEQEND
  8
0
  0
POLYLINE
  8
20
 66
1
 10
0.0000
 20
0.0000
 30
0.0000
 40
0.7620
 41
0.7620
 70
0
  0
VERTEX
  8
20
 10
10.4001
 20
13.4610
 30
0.0000
  0
VERTEX
  8
20
 10
9.2007
 20
13.4610
 30
0.0000
  0
SEQEND
  8
0
  0
POLYLINE
  8
20
 66
1
 10
0.0000
 20
0.0000
 30
0.0000
 40
0.3810
 41
0.3810
 70
0
  0
VERTEX
  8
20
 10
9.2007
 20
13.6515
 30
0.0000
 42
1.0000
  0
VERTEX
  8
20
 10
9.2007
 20
13.2705
 30
0.0000
  0
SEQEND
  8
0
  0
POLYLINE
  8
20
 66
1
 10
0.0000
 20
0.0000
 30
0.0000
 40
0.3810
 41
0.3810
 70
0
  0
VERTEX
  8
20
 10
10.4001
 20
13.2705
 30
0.0000
 42
1.0000
  0
VERTEX
  8
20
 10
10.4001
 20
13.6515
 30
0.0000
  0
SEQEND
  8
0
  0
POLYLINE
  8
20
 66
1
 10
0.0000
 20
0.0000
 30
0.0000
 40
0.7620
 41
0.7620
 70
0
  0
VERTEX
  8
20
 10
8.4810
 20
14.1807
 30
0.0000
 42
0.4142
  0
VERTEX
  8
20
 10
9.2007
 20
13.4610
 30
0.0000
  0
SEQEND
  8
0
  0
POLYLINE
  8
20
 66
1
 10
0.0000
 20
0.0000
 30
0.0000
 40
0.3810
 41
0.3810
 70
0
  0
VERTEX
  8
20
 10
8.6715
 20
14.1807
 30
0.0000
 42
1.0000
  0
VERTEX
  8
20
 10
8.2905
 20
14.1807
 30
0.0000
  0
SEQEND
  8
0
  0
POLYLINE
  8
20
 66
1
 10
0.0000
 20
0.0000
 30
0.0000
 40
0.3810
 41
0.3810
 70
0
  0
VERTEX
  8
20
 10
9.2007
 20
13.2705
 30
0.0000
 42
1.0000
  0
VERTEX
  8
20
 10
9.2007
 20
13.6515
 30
0.0000
  0
SEQEND
  8
0
  0
POLYLINE
  8
20
 66
1
 10
0.0000
 20
0.0000
 30
0.0000
 40
0.7620
 41
0.7620
 70
0
  0
VERTEX
  8
20
 10
8.4810
 20
14.1807
 30
0.0000
  0
VERTEX
  8
20
 10
8.4810
 20
15.3801
 30
0.0000
  0
SEQEND
  8
0
  0
POLYLINE
  8
20
 66
1
 10
0.0000
 20
0.0000
 30
0.0000
 40
0.3810
 41
0.3810
 70
0
  0
VERTEX
  8
20
 10
8.6715
 20
15.3801
 30
0.0000
 42
1.0000
  0
VERTEX
  8
20
 10
8.2905
 20
15.3801
 30
0.0000
  0
SEQEND
  8
0
  0
POLYLINE
  8
20
 66
1
 10
0.0000
 20
0.0000
 30
0.0000
 40
0.3810
 41
0.3810
 70
0
  0
VERTEX
  8
20
 10
8.2905
 20
14.1807
 30
0.0000
 42
1.0000
  0
VERTEX
  8
20
 10
8.6715
 20
14.1807
 30
0.0000
  0
SEQEND
  8
0
  0
POLYLINE
  8
20
 66
1
 10
0.0000
 20
0.0000
 30
0.0000
 40
0.7620
 41
0.7620
 70
0
  0
VERTEX
  8
20
 10
10.4001
 20
15.3801
 30
0.0000
 42
1.0000
  0
VERTEX
  8
20
 10
8.4810
 20
15.3801
 30
0.0000
  0
SEQEND
  8
0
  0
POLYLINE
  8
20
 66
1
 10
0.0000
 20
0.0000
 30
0.0000
 40
0.3810
 41
0.3810
 70
0
  0
VERTEX
  8
20
 10
10.2096
 20
15.3801
 30
0.0000
 42
1.0000
  0
VERTEX
  8
20
 10
10.5906
 20
15.3801
 30
0.0000
  0
SEQEND
  8
0
  0
POLYLINE
  8
20
 66
1
 10
0.0000
 20
0.0000
 30
0.0000
 40
0.3810
 41
0.3810
 70
0
  0
VERTEX
  8
20
 10
8.2905
 20
15.3801
 30
0.0000
 42
1.0000
  0
VERTEX
  8
20
 10
8.6715
 20
15.3801
 30
0.0000
  0
SEQEND
  8
0
  0
POLYLINE
  8
20
 66
1
 10
0.0000
 20
0.0000
 30
0.0000
 40
0.7620
 41
0.7620
 70
0
  0
VERTEX
  8
20
 10
10.4001
 20
15.3801
 30
0.0000
  0
VERTEX
  8
20
 10
10.4001
 20
14.9003
 30
0.0000
  0
SEQEND
  8
0
  0
POLYLINE
  8
20
 66
1
 10
0.0000
 20
0.0000
 30
0.0000
 40
0.3810
 41
0.3810
 70
0
  0
VERTEX
  8
20
 10
10.2096
 20
14.9003
 30
0.0000
 42
1.0000
  0
VERTEX
  8
20
 10
10.5906
 20
14.9003
 30
0.0000
  0
SEQEND
  8
0
  0
POLYLINE
  8
20
 66
1
 10
0.0000
 20
0.0000
 30
0.0000
 40
0.3810
 41
0.3810
 70
0
  0
VERTEX
  8
20
 10
10.5906
 20
15.3801
 30
0.0000
 42
1.0000
  0
VERTEX
  8
20
 10
10.2096
 20
15.3801
 30
0.0000
  0
SEQEND
  8
0
  0
POLYLINE
  8
20
 66
1
 10
0.0000
 20
0.0000
 30
0.0000
 40
0.7620
 41
0.7620
 70
0
  0
VERTEX
  8
20
 10
10.4001
 20
14.9003
 30
0.0000
  0
VERTEX
  8
20
 10
8.4810
 20
14.9003
 30
0.0000
  0
SEQEND
  8
0
  0
POLYLINE
  8
20
 66
1
 10
0.0000
 20
0.0000
 30
0.0000
 40
0.3810
 41
0.3810
 70
0
  0
VERTEX
  8
20
 10
8.4810
 20
15.0908
 30
0.0000
 42
1.0000
  0
VERTEX
  8
20
 10
8.4810
 20
14.7098
 30
0.0000
  0
SEQEND
  8
0
  0
POLYLINE
  8
20
 66
1
 10
0.0000
 20
0.0000
 30
0.0000
 40
0.3810
 41
0.3810
 70
0
  0
VERTEX
  8
20
 10
10.4001
 20
14.7098
 30
0.0000
 42
1.0000
  0
VERTEX
  8
20
 10
10.4001
 20
15.0908
 30
0.0000
  0
SEQEND
  8
0
  0
POLYLINE
  8
20
 66
1
 10
0.0000
 20
0.0000
 30
0.0000
 40
0.7620
 41
0.7620
 70
0
  0
VERTEX
  8
20
 10
11.9382
 20
13.4610
 30
0.0000
  0
VERTEX
  8
20
 10
11.9382
 20
16.3397
 30
0.0000
  0
SEQEND
  8
0
  0
POLYLINE
  8
20
 66
1
 10
0.0000
 20
0.0000
 30
0.0000
 40
0.3810
 41
0.3810
 70
0
  0
VERTEX
  8
20
 10
12.1287
 20
16.3397
 30
0.0000
 42
1.0000
  0
VERTEX
  8
20
 10
11.7477
 20
16.3397
 30
0.0000
  0
SEQEND
  8
0
  0
POLYLINE
  8
20
 66
1
 10
0.0000
 20
0.0000
 30
0.0000
 40
0.3810
 41
0.3810
 70
0
  0
VERTEX
  8
20
 10
11.7477
 20
13.4610
 30
0.0000
 42
1.0000
  0
VERTEX
  8
20
 10
12.1287
 20
13.4610
 30
0.0000
  0
SEQEND
  8
0
  0
POLYLINE
  8
20
 66
1
 10
0.0000
 20
0.0000
 30
0.0000
 40
0.7620
 41
0.7620
 70
0
  0
VERTEX
  8
20
 10
11.9382
 20
16.3397
 30
0.0000
  0
VERTEX
  8
20
 10
14.0972
 20
16.3397
 30
0.0000
  0
SEQEND
  8
0
  0
POLYLINE
  8
20
 66
1
 10
0.0000
 20
0.0000
 30
0.0000
 40
0.3810
 41
0.3810
 70
0
  0
VERTEX
  8
20
 10
14.0972
 20
16.1492
 30
0.0000
 42
1.0000
  0
VERTEX
  8
20
 10
14.0972
 20
16.5302
 30
0.0000
  0
SEQEND
  8
0
  0
POLYLINE
  8
20
 66
1
 10
0.0000
 20
0.0000
 30
0.0000
 40
0.3810
 41
0.3810
 70
0
  0
VERTEX
  8
20
 10
11.9382
 20
16.5302
 30
0.0000
 42
1.0000
  0
VERTEX
  8
20
 10
11.9382
 20
16.1492
 30
0.0000
  0
SEQEND
  8
0
  0
POLYLINE
  8
20
 66
1
 10
0.0000
 20
0.0000
 30
0.0000
 40
0.7620
 41
0.7620
 70
0
  0
VERTEX
  8
20
 10
14.8169
 20
15.6200
 30
0.0000
 42
0.4142
  0
VERTEX
  8
20
 10
14.0972
 20
16.3397
 30
0.0000
  0
SEQEND
  8
0
  0
POLYLINE
  8
20
 66
1
 10
0.0000
 20
0.0000
 30
0.0000
 40
0.3810
 41
0.3810
 70
0
  0
VERTEX
  8
20
 10
14.6264
 20
15.6200
 30
0.0000
 42
1.0000
  0
VERTEX
  8
20
 10
15.0074
 20
15.6200
 30
0.0000
  0
SEQEND
  8
0
  0
POLYLINE
  8
20
 66
1
 10
0.0000
 20
0.0000
 30
0.0000
 40
0.3810
 41
0.3810
 70
0
  0
VERTEX
  8
20
 10
14.0972
 20
16.5302
 30
0.0000
 42
1.0000
  0
VERTEX
  8
20
 10
14.0972
 20
16.1492
 30
0.0000
  0
SEQEND
  8
0
  0
POLYLINE
  8
20
 66
1
 10
0.0000
 20
0.0000
 30
0.0000
 40
0.7620
 41
0.7620
 70
0
  0
VERTEX
  8
20
 10
14.8169
 20
15.6200
 30
0.0000
  0
VERTEX
  8
20
 10
14.8169
 20
13.4610
 30
0.0000
  0
SEQEND
  8
0
  0
POLYLINE
  8
20
 66
1
 10
0.0000
 20
0.0000
 30
0.0000
 40
0.3810
 41
0.3810
 70
0
  0
VERTEX
  8
20
 10
14.6264
 20
13.4610
 30
0.0000
 42
1.0000
  0
VERTEX
  8
20
 10
15.0074
 20
13.4610
 30
0.0000
  0
SEQEND
  8
0
  0
POLYLINE
  8
20
 66
1
 10
0.0000
 20
0.0000
 30
0.0000
 40
0.3810
 41
0.3810
 70
0
  0
VERTEX
  8
20
 10
15.0074
 20
15.6200
 30
0.0000
 42
1.0000
  0
VERTEX
  8
20
 10
14.6264
 20
15.6200
 30
0.0000
  0
SEQEND
  8
0
  0
POLYLINE
  8
20
 66
1
 10
0.0000
 20
0.0000
 30
0.0000
 40
0.7620
 41
0.7620
 70
0
  0
VERTEX
  8
20
 10
13.3776
 20
13.4610
 30
0.0000
  0
VERTEX
  8
20
 10
13.3776
 20
16.3397
 30
0.0000
  0
SEQEND
  8
0
  0
POLYLINE
  8
20
 66
1
 10
0.0000
 20
0.0000
 30
0.0000
 40
0.3810
 41
0.3810
 70
0
  0
VERTEX
  8
20
 10
13.5681
 20
16.3397
 30
0.0000
 42
1.0000
  0
VERTEX
  8
20
 10
13.1871
 20
16.3397
 30
0.0000
  0
SEQEND
  8
0
  0
POLYLINE
  8
20
 66
1
 10
0.0000
 20
0.0000
 30
0.0000
 40
0.3810
 41
0.3810
 70
0
  0
VERTEX
  8
20
 10
13.1871
 20
13.4610
 30
0.0000
 42
1.0000
  0
VERTEX
  8
20
 10
13.5681
 20
13.4610
 30
0.0000
  0
SEQEND
  8
0
  0
POLYLINE
  8
20
 66
1
 10
0.0000
 20
0.0000
 30
0.0000
 40
0.7620
 41
0.7620
 70
0
  0
VERTEX
  8
20
 10
16.3550
 20
14.4206
 30
0.0000
  0
VERTEX
  8
20
 10
16.3550
 20
15.3801
 30
0.0000
  0
SEQEND
  8
0
  0
POLYLINE
  8
20
 66
1
 10
0.0000
 20
0.0000
 30
0.0000
 40
0.3810
 41
0.3810
 70
0
  0
VERTEX
  8
20
 10
16.5455
 20
15.3801
 30
0.0000
 42
1.0000
  0
VERTEX
  8
20
 10
16.1645
 20
15.3801
 30
0.0000
  0
SEQEND
  8
0
  0
POLYLINE
  8
20
 66
1
 10
0.0000
 20
0.0000
 30
0.0000
 40
0.3810
 41
0.3810
 70
0
  0
VERTEX
  8
20
 10
16.1645
 20
14.4206
 30
0.0000
 42
1.0000
  0
VERTEX
  8
20
 10
16.5455
 20
14.4206
 30
0.0000
  0
SEQEND
  8
0
  0
POLYLINE
  8
20
 66
1
 10
0.0000
 20
0.0000
 30
0.0000
 40
0.7620
 41
0.7620
 70
0
  0
VERTEX
  8
20
 10
18.2741
 20
15.3801
 30
0.0000
 42
1.0000
  0
VERTEX
  8
20
 10
16.3550
 20
15.3801
 30
0.0000
  0
SEQEND
  8
0
  0
POLYLINE
  8
20
 66
1
 10
0.0000
 20
0.0000
 30
0.0000
 40
0.3810
 41
0.3810
 70
0
  0
VERTEX
  8
20
 10
18.0836
 20
15.3801
 30
0.0000
 42
1.0000
  0
VERTEX
  8
20
 10
18.4646
 20
15.3801
 30
0.0000
  0
SEQEND
  8
0
  0
POLYLINE
  8
20
 66
1
 10
0.0000
 20
0.0000
 30
0.0000
 40
0.3810
 41
0.3810
 70
0
  0
VERTEX
  8
20
 10
16.1645
 20
15.3801
 30
0.0000
 42
1.0000
  0
VERTEX
  8
20
 10
16.5455
 20
15.3801
 30
0.0000
  0
SEQEND
  8
0
  0
POLYLINE
  8
20
 66
1
 10
0.0000
 20
0.0000
 30
0.0000
 40
0.7620
 41
0.7620
 70
0
  0
VERTEX
  8
20
 10
18.2741
 20
15.3801
 30
0.0000
  0
VERTEX
  8
20
 10
18.2741
 20
14.4206
 30
0.0000
  0
SEQEND
  8
0
  0
POLYLINE
  8
20
 66
1
 10
0.0000
 20
0.0000
 30
0.0000
 40
0.3810
 41
0.3810
 70
0
  0
VERTEX
  8
20
 10
18.0836
 20
14.4206
 30
0.0000
 42
1.0000
  0
VERTEX
  8
20
 10
18.4646
 20
14.4206
 30
0.0000
  0
SEQEND
  8
0
  0
POLYLINE
  8
20
 66
1
 10
0.0000
 20
0.0000
 30
0.0000
 40
0.3810
 41
0.3810
 70
0
  0
VERTEX
  8
20
 10
18.4646
 20
15.3801
 30
0.0000
 42
1.0000
  0
VERTEX
  8
20
 10
18.0836
 20
15.3801
 30
0.0000
  0
SEQEND
  8
0
  0
POLYLINE
  8
20
 66
1
 10
0.0000
 20
0.0000
 30
0.0000
 40
0.7620
 41
0.7620
 70
0
  0
VERTEX
  8
20
 10
16.3550
 20
14.4206
 30
0.0000
 42
1.0000
  0
VERTEX
  8
20
 10
18.2741
 20
14.4206
 30
0.0000
  0
SEQEND
  8
0
  0
POLYLINE
  8
20
 66
1
 10
0.0000
 20
0.0000
 30
0.0000
 40
0.3810
 41
0.3810
 70
0
  0
VERTEX
  8
20
 10
16.5455
 20
14.4206
 30
0.0000
 42
1.0000
  0
VERTEX
  8
20
 10
16.1645
 20
14.4206
 30
0.0000
  0
SEQEND
  8
0
  0
POLYLINE
  8
20
 66
1
 10
0.0000
 20
0.0000
 30
0.0000
 40
0.3810
 41
0.3810
 70
0
  0
VERTEX
  8
20
 10
18.4646
 20
14.4206
 30
0.0000
 42
1.0000
  0
VERTEX
  8
20
 10
18.0836
 20
14.4206
 30
0.0000
  0
SEQEND
  8
0
  0
POLYLINE
  8
20
 66
1
 10
0.0000
 20
0.0000
 30
0.0000
 40
0.7620
 41
0.7620
 70
0
  0
VERTEX
  8
20
 10
19.7840
 20
13.4610
 30
0.0000
  0
VERTEX
  8
20
 10
19.7840
 20
16.3397
 30
0.0000
  0
SEQEND
  8
0
  0
POLYLINE
  8
20
 66
1
 10
0.0000
 20
0.0000
 30
0.0000
 40
0.3810
 41
0.3810
 70
0
  0
VERTEX
  8
20
 10
19.9745
 20
16.3397
 30
0.0000
 42
1.0000
  0
VERTEX
  8
20
 10
19.5935
 20
16.3397
 30
0.0000
  0
SEQEND
  8
0
  0
POLYLINE
  8
20
 66
1
 10
0.0000
 20
0.0000
 30
0.0000
 40
0.3810
 41
0.3810
 70
0
  0
VERTEX
  8
20
 10
19.5935
 20
13.4610
 30
0.0000
 42
1.0000
  0
VERTEX
  8
20
 10
19.9745
 20
13.4610
 30
0.0000
  0
SEQEND
  8
0
  0
POLYLINE
  8
20
 66
1
 10
0.0000
 20
0.0000
 30
0.0000
 40
0.7620
 41
0.7620
 70
0
  0
VERTEX
  8
20
 10
19.7840
 20
16.3397
 30
0.0000
  0
VERTEX
  8
20
 10
20.9834
 20
16.3397
 30
0.0000
  0
SEQEND
  8
0
  0
POLYLINE
  8
20
 66
1
 10
0.0000
 20
0.0000
 30
0.0000
 40
0.3810
 41
0.3810
 70
0
  0
VERTEX
  8
20
 10
20.9834
 20
16.1492
 30
0.0000
 42
1.0000
  0
VERTEX
  8
20
 10
20.9834
 20
16.5302
 30
0.0000
  0
SEQEND
  8
0
  0
POLYLINE
  8
20
 66
1
 10
0.0000
 20
0.0000
 30
0.0000
 40
0.3810
 41
0.3810
 70
0
  0
VERTEX
  8
20
 10
19.7840
 20
16.5302
 30
0.0000
 42
1.0000
  0
VERTEX
  8
20
 10
19.7840
 20
16.1492
 30
0.0000
  0
SEQEND
  8
0
  0
POLYLINE
  8
20
 66
1
 10
0.0000
 20
0.0000
 30
0.0000
 40
0.7620
 41
0.7620
 70
0
  0
VERTEX
  8
20
 10
21.7031
 20
15.6200
 30
0.0000
 42
0.4142
  0
VERTEX
  8
20
 10
20.9834
 20
16.3397
 30
0.0000
  0
SEQEND
  8
0
  0
POLYLINE
  8
20
 66
1
 10
0.0000
 20
0.0000
 30
0.0000
 40
0.3810
 41
0.3810
 70
0
  0
VERTEX
  8
20
 10
21.5126
 20
15.6200
 30
0.0000
 42
1.0000
  0
VERTEX
  8
20
 10
21.8936
 20
15.6200
 30
0.0000
  0
SEQEND
  8
0
  0
POLYLINE
  8
20
 66
1
 10
0.0000
 20
0.0000
 30
0.0000
 40
0.3810
 41
0.3810
 70
0
  0
VERTEX
  8
20
 10
20.9834
 20
16.5302
 30
0.0000
 42
1.0000
  0
VERTEX
  8
20
 10
20.9834
 20
16.1492
 30
0.0000
  0
SEQEND
  8
0
  0
POLYLINE
  8
20
 66
1
 10
0.0000
 20
0.0000
 30
0.0000
 40
0.7620
 41
0.7620
 70
0
  0
VERTEX
  8
20
 10
21.7031
 20
15.6200
 30
0.0000
  0
VERTEX
  8
20
 10
21.7031
 20
13.4610
 30
0.0000
  0
SEQEND
  8
0
  0
POLYLINE
  8
20
 66
1
 10
0.0000
 20
0.0000
 30
0.0000
 40
0.3810
 41
0.3810
 70
0
  0
VERTEX
  8
20
 10
21.5126
 20
13.4610
 30
0.0000
 42
1.0000
  0
VERTEX
  8
20
 10
21.8936
 20
13.4610
 30
0.0000
  0
SEQEND
  8
0
  0
POLYLINE
  8
20
 66
1
 10
0.0000
 20
0.0000
 30
0.0000
 40
0.3810
 41
0.3810
 70
0
  0
VERTEX
  8
20
 10
21.8936
 20
15.6200
 30
0.0000
 42
1.0000
  0
VERTEX
  8
20
 10
21.5126
 20
15.6200
 30
0.0000
  0
SEQEND
  8
0
  0
POLYLINE
  8
20
 66
1
 10
0.0000
 20
0.0000
 30
0.0000
 40
0.7620
 41
0.7620
 70
0
  0
VERTEX
  8
20
 10
23.3776
 20
13.4610
 30
0.0000
  0
VERTEX
  8
20
 10
23.3776
 20
17.7790
 30
0.0000
  0
SEQEND
  8
0
  0
POLYLINE
  8
20
 66
1
 10
0.0000
 20
0.0000
 30
0.0000
 40
0.3810
 41
0.3810
 70
0
  0
VERTEX
  8
20
 10
23.5681
 20
17.7790
 30
0.0000
 42
1.0000
  0
VERTEX
  8
20
 10
23.1871
 20
17.7790
 30
0.0000
  0
SEQEND
  8
0
  0
POLYLINE
  8
20
 66
1
 10
0.0000
 20
0.0000
 30
0.0000
 40
0.3810
 41
0.3810
 70
0
  0
VERTEX
  8
20
 10
23.1871
 20
13.4610
 30
0.0000
 42
1.0000
  0
VERTEX
  8
20
 10
23.5681
 20
13.4610
 30
0.0000
  0
SEQEND
  8
0
  0
POLYLINE
  8
20
 66
1
 10
0.0000
 20
0.0000
 30
0.0000
 40
0.7620
 41
0.7620
 70
0
  0
VERTEX
  8
20
 10
23.3776
 20
17.7790
 30
0.0000
  0
VERTEX
  8
20
 10
24.5771
 20
17.7790
 30
0.0000
  0
SEQEND
  8
0
  0
POLYLINE
  8
20
 66
1
 10
0.0000
 20
0.0000
 30
0.0000
 40
0.3810
 41
0.3810
 70
0
  0
VERTEX
  8
20
 10
24.5771
 20
17.5885
 30
0.0000
 42
1.0000
  0
VERTEX
  8
20
 10
24.5771
 20
17.9695
 30
0.0000
  0
SEQEND
  8
0
  0
POLYLINE
  8
20
 66
1
 10
0.0000
 20
0.0000
 30
0.0000
 40
0.3810
 41
0.3810
 70
0
  0
VERTEX
  8
20
 10
23.3776
 20
17.9695
 30
0.0000
 42
1.0000
  0
VERTEX
  8
20
 10
23.3776
 20
17.5885
 30
0.0000
  0
SEQEND
  8
0
  0
POLYLINE
  8
20
 66
1
 10
0.0000
 20
0.0000
 30
0.0000
 40
0.7620
 41
0.7620
 70
0
  0
VERTEX
  8
20
 10
24.5771
 20
15.3801
 30
0.0000
 42
1.0000
  0
VERTEX
  8
20
 10
24.5771
 20
17.7790
 30
0.0000
  0
SEQEND
  8
0
  0
POLYLINE
  8
20
 66
1
 10
0.0000
 20
0.0000
 30
0.0000
 40
0.3810
 41
0.3810
 70
0
  0
VERTEX
  8
20
 10
24.5771
 20
15.5706
 30
0.0000
 42
1.0000
  0
VERTEX
  8
20
 10
24.5771
 20
15.1896
 30
0.0000
  0
SEQEND
  8
0
  0
POLYLINE
  8
20
 66
1
 10
0.0000
 20
0.0000
 30
0.0000
 40
0.3810
 41
0.3810
 70
0
  0
VERTEX
  8
20
 10
24.5771
 20
17.9695
 30
0.0000
 42
1.0000
  0
VERTEX
  8
20
 10
24.5771
 20
17.5885
 30
0.0000
  0
SEQEND
  8
0
  0
POLYLINE
  8
20
 66
1
 10
0.0000
 20
0.0000
 30
0.0000
 40
0.7620
 41
0.7620
 70
0
  0
VERTEX
  8
20
 10
24.5771
 20
15.3801
 30
0.0000
  0
VERTEX
  8
20
 10
23.3776
 20
15.3801
 30
0.0000
  0
SEQEND
  8
0
  0
POLYLINE
  8
20
 66
1
 10
0.0000
 20
0.0000
 30
0.0000
 40
0.3810
 41
0.3810
 70
0
  0
VERTEX
  8
20
 10
23.3776
 20
15.5706
 30
0.0000
 42
1.0000
  0
VERTEX
  8
20
 10
23.3776
 20
15.1896
 30
0.0000
  0
SEQEND
  8
0
  0
POLYLINE
  8
20
 66
1
 10
0.0000
 20
0.0000
 30
0.0000
 40
0.3810
 41
0.3810
 70
0
  0
VERTEX
  8
20
 10
24.5771
 20
15.1896
 30
0.0000
 42
1.0000
  0
VERTEX
  8
20
 10
24.5771
 20
15.5706
 30
0.0000
  0
SEQEND
  8
0
  0
POLYLINE
  8
20
 66
1
 10
0.0000
 20
0.0000
 30
0.0000
 40
0.7620
 41
0.7620
 70
0
  0
VERTEX
  8
20
 10
27.0935
 20
13.4610
 30
0.0000
  0
VERTEX
  8
20
 10
27.0935
 20
16.3397
 30
0.0000
  0
SEQEND
  8
0
  0
POLYLINE
  8
20
 66
1
 10
0.0000
 20
0.0000
 30
0.0000
 40
0.3810
 41
0.3810
 70
0
  0
VERTEX
  8
20
 10
27.2840
 20
16.3397
 30
0.0000
 42
1.0000
  0
VERTEX
  8
20
 10
26.9030
 20
16.3397
 30
0.0000
  0
SEQEND
  8
0
  0
POLYLINE
  8
20
 66
1
 10
0.0000
 20
0.0000
 30
0.0000
 40
0.3810
 41
0.3810
 70
0
  0
VERTEX
  8
20
 10
26.9030
 20
13.4610
 30
0.0000
 42
1.0000
  0
VERTEX
  8
20
 10
27.2840
 20
13.4610
 30
0.0000
  0
SEQEND
  8
0
  0
POLYLINE
  8
20
 66
1
 10
0.0000
 20
0.0000
 30
0.0000
 40
0.7620
 41
0.7620
 70
0
  0
VERTEX
  8
20
 10
26.9736
 20
17.5391
 30
0.0000
  0
VERTEX
  8
20
 10
26.9736
 20
17.7790
 30
0.0000
  0
SEQEND
  8
0
  0
POLYLINE
  8
20
 66
1
 10
0.0000
 20
0.0000
 30
0.0000
 40
0.3810
 41
0.3810
 70
0
  0
VERTEX
  8
20
 10
27.1641
 20
17.7790
 30
0.0000
 42
1.0000
  0
VERTEX
  8
20
 10
26.7831
 20
17.7790
 30
0.0000
  0
SEQEND
  8
0
  0
POLYLINE
  8
20
 66
1
 10
0.0000
 20
0.0000
 30
0.0000
 40
0.3810
 41
0.3810
 70
0
  0
VERTEX
  8
20
 10
26.7831
 20
17.5391
 30
0.0000
 42
1.0000
  0
VERTEX
  8
20
 10
27.1641
 20
17.5391
 30
0.0000
  0
SEQEND
  8
0
  0
POLYLINE
  8
20
 66
1
 10
0.0000
 20
0.0000
 30
0.0000
 40
0.7620
 41
0.7620
 70
0
  0
VERTEX
  8
20
 10
26.9736
 20
17.7790
 30
0.0000
  0
VERTEX
  8
20
 10
27.2135
 20
17.7790
 30
0.0000
  0
SEQEND
  8
0
  0
POLYLINE
  8
20
 66
1
 10
0.0000
 20
0.0000
 30
0.0000
 40
0.3810
 41
0.3810
 70
0
  0
VERTEX
  8
20
 10
27.2135
 20
17.5885
 30
0.0000
 42
1.0000
  0
VERTEX
  8
20
 10
27.2135
 20
17.9695
 30
0.0000
  0
SEQEND
  8
0
  0
POLYLINE
  8
20
 66
1
 10
0.0000
 20
0.0000
 30
0.0000
 40
0.3810
 41
0.3810
 70
0
  0
VERTEX
  8
20
 10
26.9736
 20
17.9695
 30
0.0000
 42
1.0000
  0
VERTEX
  8
20
 10
26.9736
 20
17.5885
 30
0.0000
  0
SEQEND
  8
0
  0
POLYLINE
  8
20
 66
1
 10
0.0000
 20
0.0000
 30
0.0000
 40
0.7620
 41
0.7620
 70
0
  0
VERTEX
  8
20
 10
27.2135
 20
17.7790
 30
0.0000
  0
VERTEX
  8
20
 10
27.2135
 20
17.5391
 30
0.0000
  0
SEQEND
  8
0
  0
POLYLINE
  8
20
 66
1
 10
0.0000
 20
0.0000
 30
0.0000
 40
0.3810
 41
0.3810
 70
0
  0
VERTEX
  8
20
 10
27.0230
 20
17.5391
 30
0.0000
 42
1.0000
  0
VERTEX
  8
20
 10
27.4040
 20
17.5391
 30
0.0000
  0
SEQEND
  8
0
  0
POLYLINE
  8
20
 66
1
 10
0.0000
 20
0.0000
 30
0.0000
 40
0.3810
 41
0.3810
 70
0
  0
VERTEX
  8
20
 10
27.4040
 20
17.7790
 30
0.0000
 42
1.0000
  0
VERTEX
  8
20
 10
27.0230
 20
17.7790
 30
0.0000
  0
SEQEND
  8
0
  0
POLYLINE
  8
20
 66
1
 10
0.0000
 20
0.0000
 30
0.0000
 40
0.7620
 41
0.7620
 70
0
  0
VERTEX
  8
20
 10
27.2135
 20
17.5391
 30
0.0000
  0
VERTEX
  8
20
 10
26.9736
 20
17.5391
 30
0.0000
  0
SEQEND
  8
0
  0
POLYLINE
  8
20
 66
1
 10
0.0000
 20
0.0000
 30
0.0000
 40
0.3810
 41
0.3810
 70
0
  0
VERTEX
  8
20
 10
26.9736
 20
17.7296
 30
0.0000
 42
1.0000
  0
VERTEX
  8
20
 10
26.9736
 20
17.3486
 30
0.0000
  0
SEQEND
  8
0
  0
POLYLINE
  8
20
 66
1
 10
0.0000
 20
0.0000
 30
0.0000
 40
0.3810
 41
0.3810
 70
0
  0
VERTEX
  8
20
 10
27.2135
 20
17.3486
 30
0.0000
 42
1.0000
  0
VERTEX
  8
20
 10
27.2135
 20
17.7296
 30
0.0000
  0
SEQEND
  8
0
  0
POLYLINE
  8
20
 66
1
 10
0.0000
 20
0.0000
 30
0.0000
 40
0.7620
 41
0.7620
 70
0
  0
VERTEX
  8
20
 10
28.5611
 20
13.4610
 30
0.0000
  0
VERTEX
  8
20
 10
29.7605
 20
13.4610
 30
0.0000
  0
SEQEND
  8
0
  0
POLYLINE
  8
20
 66
1
 10
0.0000
 20
0.0000
 30
0.0000
 40
0.3810
 41
0.3810
 70
0
  0
VERTEX
  8
20
 10
29.7605
 20
13.2705
 30
0.0000
 42
1.0000
  0
VERTEX
  8
20
 10
29.7605
 20
13.6515
 30
0.0000
  0
SEQEND
  8
0
  0
POLYLINE
  8
20
 66
1
 10
0.0000
 20
0.0000
 30
0.0000
 40
0.3810
 41
0.3810
 70
0
  0
VERTEX
  8
20
 10
28.5611
 20
13.6515
 30
0.0000
 42
1.0000
  0
VERTEX
  8
20
 10
28.5611
 20
13.2705
 30
0.0000
  0
SEQEND
  8
0
  0
POLYLINE
  8
20
 66
1
 10
0.0000
 20
0.0000
 30
0.0000
 40
0.7620
 41
0.7620
 70
0
  0
VERTEX
  8
20
 10
29.7605
 20
13.4610
 30
0.0000
 42
1.0000
  0
VERTEX
  8
20
 10
29.7605
 20
15.8599
 30
0.0000
  0
SEQEND
  8
0
  0
POLYLINE
  8
20
 66
1
 10
0.0000
 20
0.0000
 30
0.0000
 40
0.3810
 41
0.3810
 70
0
  0
VERTEX
  8
20
 10
29.7605
 20
13.6515
 30
0.0000
 42
1.0000
  0
VERTEX
  8
20
 10
29.7605
 20
13.2705
 30
0.0000
  0
SEQEND
  8
0
  0
POLYLINE
  8
20
 66
1
 10
0.0000
 20
0.0000
 30
0.0000
 40
0.3810
 41
0.3810
 70
0
  0
VERTEX
  8
20
 10
29.7605
 20
16.0504
 30
0.0000
 42
1.0000
  0
VERTEX
  8
20
 10
29.7605
 20
15.6694
 30
0.0000
  0
SEQEND
  8
0
  0
POLYLINE
  8
20
 66
1
 10
0.0000
 20
0.0000
 30
0.0000
 40
0.7620
 41
0.7620
 70
0
  0
VERTEX
  8
20
 10
28.5611
 20
17.7790
 30
0.0000
  0
VERTEX
  8
20
 10
30.0004
 20
17.7790
 30
0.0000
  0
SEQEND
  8
0
  0
POLYLINE
  8
20
 66
1
 10
0.0000
 20
0.0000
 30
0.0000
 40
0.3810
 41
0.3810
 70
0
  0
VERTEX
  8
20
 10
30.0004
 20
17.5885
 30
0.0000
 42
1.0000
  0
VERTEX
  8
20
 10
30.0004
 20
17.9695
 30
0.0000
  0
SEQEND
  8
0
  0
POLYLINE
  8
20
 66
1
 10
0.0000
 20
0.0000
 30
0.0000
 40
0.3810
 41
0.3810
 70
0
  0
VERTEX
  8
20
 10
28.5611
 20
17.9695
 30
0.0000
 42
1.0000
  0
VERTEX
  8
20
 10
28.5611
 20
17.5885
 30
0.0000
  0
SEQEND
  8
0
  0
POLYLINE
  8
20
 66
1
 10
0.0000
 20
0.0000
 30
0.0000
 40
0.7620
 41
0.7620
 70
0
  0
VERTEX
  8
20
 10
30.0004
 20
15.8599
 30
0.0000
 42
1.0000
  0
VERTEX
  8
20
 10
30.0004
 20
17.7790
 30
0.0000
  0
SEQEND
  8
0
  0
POLYLINE
  8
20
 66
1
 10
0.0000
 20
0.0000
 30
0.0000
 40
0.3810
 41
0.3810
 70
0
  0
VERTEX
  8
20
 10
30.0004
 20
16.0504
 30
0.0000
 42
1.0000
  0
VERTEX
  8
20
 10
30.0004
 20
15.6694
 30
0.0000
  0
SEQEND
  8
0
  0
POLYLINE
  8
20
 66
1
 10
0.0000
 20
0.0000
 30
0.0000
 40
0.3810
 41
0.3810
 70
0
  0
VERTEX
  8
20
 10
30.0004
 20
17.9695
 30
0.0000
 42
1.0000
  0
VERTEX
  8
20
 10
30.0004
 20
17.5885
 30
0.0000
  0
SEQEND
  8
0
  0
POLYLINE
  8
20
 66
1
 10
0.0000
 20
0.0000
 30
0.0000
 40
0.7620
 41
0.7620
 70
0
  0
VERTEX
  8
20
 10
30.0004
 20
15.8599
 30
0.0000
  0
VERTEX
  8
20
 10
29.0409
 20
15.8599
 30
0.0000
  0
SEQEND
  8
0
  0
POLYLINE
  8
20
 66
1
 10
0.0000
 20
0.0000
 30
0.0000
 40
0.3810
 41
0.3810
 70
0
  0
VERTEX
  8
20
 10
29.0409
 20
16.0504
 30
0.0000
 42
1.0000
  0
VERTEX
  8
20
 10
29.0409
 20
15.6694
 30
0.0000
  0
SEQEND
  8
0
  0
POLYLINE
  8
20
 66
1
 10
0.0000
 20
0.0000
 30
0.0000
 40
0.3810
 41
0.3810
 70
0
  0
VERTEX
  8
20
 10
30.0004
 20
15.6694
 30
0.0000
 42
1.0000
  0
VERTEX
  8
20
 10
30.0004
 20
16.0504
 30
0.0000
  0
SEQEND
  8
0
  0
POLYLINE
  8
20
 66
1
 10
0.0000
 20
0.0000
 30
0.0000
 40
1.2700
 41
1.2700
 70
0
  0
VERTEX
  8
20
 10
40.6000
 20
65.5800
 30
0.0000
 42
1.0000
  0
VERTEX
  8
20
 10
40.6000
 20
71.5800
 30
0.0000
 42
1.0000
  0
VERTEX
  8
20
 10
40.6000
 20
65.5800
 30
0.0000
  0
SEQEND
  8
0
  0
POLYLINE
  8
20
 66
1
 10
0.0000
 20
0.0000
 30
0.0000
 40
0.1500
 41
0.1500
 70
0
  0
VERTEX
  8
20
 10
40.6000
 20
66.7800
 30
0.0000
 42
1.0000
  0
VERTEX
  8
20
 10
40.6000
 20
70.3800
 30
0.0000
 42
1.0000
  0
VERTEX
  8
20
 10
40.6000
 20
66.7800
 30
0.0000
  0
SEQEND
  8
0
  0
POLYLINE
  8
20
 66
1
 10
0.0000
 20
0.0000
 30
0.0000
 40
1.2700
 41
1.2700
 70
0
  0
VERTEX
  8
20
 10
40.6000
 20
63.5800
 30
0.0000
 42
1.0000
  0
VERTEX
  8
20
 10
40.6000
 20
73.5800
 30
0.0000
 42
1.0000
  0
VERTEX
  8
20
 10
40.6000
 20
63.5800
 30
0.0000
  0
SEQEND
  8
0
  0
ENDSEC
  0
EOF
